<svg xmlns="http://www.w3.org/2000/svg" viewBox="0 0 301.82 495.31"><defs><style>.cls-1{isolation:isolate;}.cls-2{opacity:0.5;mix-blend-mode:overlay;}.cls-3{fill:#2d2d2d;}.cls-4{fill:#9c9c9c;}.cls-5{fill:#3c3c3c;}.cls-6{fill:#bcbcbc;}.cls-7{fill:#d8d8d8;}.cls-8{fill:#c5c5c5;}.cls-9{fill:#eae9ea;}.cls-10{fill:#dcdcdc;}.cls-11{fill:#141c32;}.cls-12{fill:#202d50;}.cls-13{fill:#ececec;}.cls-14{fill:#488898;}.cls-15{fill:#2d6e75;}</style></defs><title>astronaut</title><g class="cls-1"><g id="Objects"><g class="cls-2"><path class="cls-3" d="M349.95,361.65h0l-4.52-29.88,19.08-24.48c12.17-16.52-8.79-34.67-8.79-34.67l-0.69-.5a6,6,0,0,0,2.89-2.3l1.66-2.5a6,6,0,0,0-1.69-8.32L310.3,227.53a6,6,0,0,0-3.67-1l-13-84.36-22,3.33,3.63,24-4.08-26.92c-0.56-3.69-4.23-6-8.73-5.34l-5.43.82a9.3,9.3,0,0,0-3.06.81l-5.11-33.77-51.44,7.79h0l-50.58,7.66,5.11,33.77a9.55,9.55,0,0,0-3.2.14l-5.43.82c-4.5.68-7.28,4-6.72,7.67l5.82,38.46a6,6,0,0,0,1.29,2.91l-1.68.25L136.18,166l-21.66,3.28,9.66,65.12c-12.6,1.76-20.12-3.49-22-4.86l-4.06-25.32,13.62-2.06a1,1,0,0,0,.84-1.14L108,171.3a1,1,0,0,0-1.14-.84L77.16,175a1,1,0,0,0-.84,1.14l4.5,29.74a1,1,0,0,0,1.14.84l13.17-2,4.09,26.52,0.55,0.35c0.4,0.33,9.67,8,24.85,5.85L127,253.72a6,6,0,0,0-3.36,2.06L87.56,299.92a6,6,0,0,0,.84,8.45l2.32,1.9a6,6,0,0,0,3.44,1.34l-0.5.68S79,335.84,95.53,348l25.27,17.6,23.11,152.63,34.29-5.19-6.91-45.65,16.75-3,5.49-.64,10.85,71.66h0l1.43,9.43h0l0.11,0.71a8,8,0,0,0-2.43,7.09l4.82,31.86c0.57,3.77,3.81,6.73,6.87,6.27L260,584c3.06-.46,4.61-4.15,4-7.92l-4.82-31.86a8.37,8.37,0,0,0-3.53-6l-0.14-.94h0l-1.43-9.43h0l-10.64-70.29,6-.91h0l6.86-1L267,525.92h0l0.27,1.81,1.24,8.2a7.9,7.9,0,0,0-2.41,7.22L270.88,575c0.57,3.77,3.56,6.77,6.62,6.31l44.81-6.78c3.06-.46,4.86-4.19,4.29-8l-4.82-31.86c-0.44-2.92-2.24-5.46-4.45-6.25L305,446.87l5.6-1,16.74-2,6.91,45.65,34.29-5.19Zm-24.14-64.36-6.66,9.4-0.13,0-2.55-16.5c1.11,0.73,2.16,1.45,3.12,2.15,1.89,1.43,3.86,3.05,5.94,4.89l0.09-.12ZM129.86,327a82.2,82.2,0,0,1,6.64-9.42L138.95,334h-0.06Zm147.6-142.86-0.84.13a5.93,5.93,0,0,0,.38-3.16Z" transform="translate(-71.81 -100)"/><path class="cls-3" d="M214.53,595.31c-5.13,0-9.82-4.46-10.68-10.15L199,553.3a12.77,12.77,0,0,1,2.12-9.16l-11.42-75.42-1,.12-12.31,2.22,6.93,45.77-43.19,6.54L116.64,368.2,92.86,351.64c-13.86-10.22-10.15-27.59-5.08-38l-2.22-1.82a10.5,10.5,0,0,1-1.48-14.78l36.12-44.14a10.42,10.42,0,0,1,1.9-1.8l-1.32-8.88-1.45,0a36.93,36.93,0,0,1-22.2-7.06l-2.06-1.32L91.37,209.8l-8.74,1.32a5.48,5.48,0,0,1-6.26-4.62l-4.5-29.74a5.5,5.5,0,0,1,4.62-6.26l29.74-4.5a5.5,5.5,0,0,1,3.34.54l-0.15-1L132,162.1c-0.05-5.59,4.27-10.29,10.62-11.25l4.13-.63-5.06-33.43L252.62,100l5.06,33.43,4.09-.62a14.85,14.85,0,0,1,2.22-.17c5.45,0,9.89,3.13,11.29,7.77l22.07-3.34,13.22,85.6a10.45,10.45,0,0,1,2.19,1.11l47.57,31.47a10.5,10.5,0,0,1,3,14.56l-1.58,2.39c7.92,8.41,16.6,23.91,6.39,37.77l-0.07.1-17.89,23,23.47,155-43.19,6.54-6.93-45.77-12.25,1.5-1.18.22,11.38,75.16a13,13,0,0,1,4.78,8.39l4.82,31.86a13.11,13.11,0,0,1-1.24,8A9.34,9.34,0,0,1,323,579l-44.81,6.78a8.69,8.69,0,0,1-1.3.1,10.34,10.34,0,0,1-8.59-5.15c-1,4.06-3.81,7.13-7.63,7.71l-44.81,6.79A8.81,8.81,0,0,1,214.53,595.31Zm-17.2-136.55,13.41,88.59L208.81,549a3.57,3.57,0,0,0-.88,3l4.82,31.86a3.12,3.12,0,0,0,1.77,2.49l44.64-6.76a4.07,4.07,0,0,0,.41-2.82l-4.82-31.86a4.26,4.26,0,0,0-1.36-2.74L251.54,541,238.33,453.8l21.76-3.29,13.22,87.34-2,1.62a3.66,3.66,0,0,0-.76,3l4.82,31.86a3.27,3.27,0,0,0,1.57,2.53l44.66-6.77a3.55,3.55,0,0,0,.59-2.85l-4.82-31.86a3.69,3.69,0,0,0-1.52-2.69l-2.53-.91-13.41-88.55L310,441.36l21.08-2.57L338,484.31l25.39-3.84-22.7-149.93,20.23-26c9.15-12.51-6.34-26.94-8-28.45l-7.19-5.3,7.75-2.92a1.47,1.47,0,0,0,.72-0.57l1.65-2.5a1.5,1.5,0,0,0-.42-2.09l-47.57-31.47A1.45,1.45,0,0,0,307,231l-4.09.25-0.72-4-12.35-79.92-13.09,2,3,19.55-8.9,1.35-4.08-26.92c-0.18-1.2-1.59-1.63-2.74-1.63a5.84,5.84,0,0,0-.87.07l-5.43.82a12.37,12.37,0,0,0-1.56.3l-5.64,3.22-5.42-35.81L152,124.34l5.42,35.8-6.32-1.4a12.78,12.78,0,0,0-1.64.18l-5.44.82c-1.57.24-3.16,1.14-2.94,2.55l5.82,38.46a1.49,1.49,0,0,0,.32.74l5,6.11-13.94,2.11-5.84-38.58-12.77,1.93,9.67,65.17h0l2.81,19-4.1.9a1.48,1.48,0,0,0-.84.51L91,302.77a1.5,1.5,0,0,0,.21,2.12l2.32,1.9a1.46,1.46,0,0,0,.86.33l8.27,0.49-5.3,7.19c-1.14,1.9-11.71,20.3.75,29.55L125,363l22.72,150.09,25.39-3.84-6.89-45.52,21.33-3.85Zm62.52,77a12,12,0,0,1,2,2.62,12,12,0,0,1,1.82-3.93l-11.17-73.75-4,.6ZM106.27,226.89A24.58,24.58,0,0,0,119,230.28l-3.72-25.07a5.46,5.46,0,0,1-2.93,1.41L103.24,208Zm-25-48,3.46,22.82,22.82-3.45-3.45-22.82ZM137.7,338.7l-1.58-1.17L124,328.09l2-3.4a86.32,86.32,0,0,1,7-10l6.44-7.9,4.59,31Zm177.55-26.87-4.78-30.92,8.46,5.54c1.1,0.72,2.2,1.48,3.29,2.26l0.09,0.07q1.22,0.92,2.46,1.93l0.14-.19,6.89,6.11-10.09,14.23Zm-45.8-122,3-7.34a1.45,1.45,0,0,0,.09-0.78h0l3.61-.55L276,179.77l0.84-.13,0.21,1.41,4.45-.67,1.13,7.49Z" transform="translate(-71.81 -100)"/></g><polygon class="cls-4" points="42.71 69.31 64.37 66.03 70.21 104.6 138.79 94.22 178.51 356.54 161.98 359.04 116.23 364.38 99.48 367.41 106.39 413.06 72.1 418.25 44.71 237.37 67.14 233.97 42.71 69.31"/><rect class="cls-5" x="118.73" y="187.26" width="9.54" height="4.34" transform="matrix(0.99, -0.15, 0.15, 0.99, -98.77, -79.38)"/><rect class="cls-5" x="131.61" y="185.64" width="5.2" height="4.34" transform="translate(-98.41 -77.79) rotate(-8.61)"/><circle class="cls-5" cx="157.69" cy="496.66" r="8.63" transform="translate(-144.36 -70.81) rotate(-8.61)"/><rect class="cls-6" x="120.84" y="335.8" width="16.47" height="58.96" transform="translate(-125.03 -76.56) rotate(-8.61)"/><rect class="cls-5" x="126.04" y="354.01" width="6.07" height="22.54" transform="translate(-125.04 -76.56) rotate(-8.61)"/><polygon class="cls-4" points="221.79 42.19 199.82 45.52 205.66 84.1 137.93 94.35 177.65 356.67 193.64 354.25 238.76 345.83 255.5 343.79 262.41 389.44 296.7 384.24 269.31 203.36 247.21 206.71 221.79 42.19"/><rect class="cls-5" x="285.89" y="161.95" width="9.54" height="4.34" transform="translate(-93.1 -54.64) rotate(-8.61)"/><rect class="cls-5" x="277.35" y="163.57" width="5.2" height="4.33" transform="translate(-93.48 -56.19) rotate(-8.62)"/><circle class="cls-5" cx="349.28" cy="467.66" r="8.63" transform="translate(-137.85 -42.47) rotate(-8.61)"/><rect class="cls-6" x="329.15" y="304.26" width="16.47" height="58.96" transform="translate(-117.96 -45.74) rotate(-8.61)"/><rect class="cls-5" x="334.35" y="322.47" width="6.07" height="22.54" transform="translate(-117.95 -45.75) rotate(-8.61)"/><rect class="cls-7" x="140.26" y="372.35" width="36.41" height="20.81" transform="translate(-127.32 -71.96) rotate(-8.61)"/><rect class="cls-8" x="143.37" y="392.92" width="36.41" height="20.81" transform="translate(-130.36 -71.27) rotate(-8.61)"/><rect class="cls-7" x="297.14" y="348.66" width="35.55" height="20.81" transform="translate(-122.01 -48.81) rotate(-8.61)"/><rect class="cls-8" x="300.26" y="369.24" width="35.55" height="20.81" transform="translate(-125.05 -48.11) rotate(-8.61)"/><path class="cls-9" d="M108,171.3a1,1,0,0,0-1.14-.84L77.16,175a1,1,0,0,0-.84,1.14l4.5,29.74a1,1,0,0,0,1.14.84l29.74-4.5a1,1,0,0,0,.84-1.14Z" transform="translate(-71.81 -100)"/><circle class="cls-5" cx="94.18" cy="188.56" r="8.23" transform="matrix(0.99, -0.15, 0.15, 0.99, -98.97, -83.77)"/><path class="cls-9" d="M125.05,237.34c-15.43,2.34-24.88-5.46-25.28-5.79l-0.55-.35-4.1-26.59,2.94-.45,4.07,25.4c1.94,1.39,9.61,6.76,22.47,4.81Z" transform="translate(-71.81 -100)"/><path class="cls-10" d="M146.83,120.57l5.11,33.77a9.55,9.55,0,0,0-3.2.14l-5.43.82c-4.5.68-7.28,4-6.72,7.67l5.82,38.46c0.56,3.69,4.18,6,8.68,5.3l5.43-.82a9.62,9.62,0,0,0,3.1-.77l4.2,27.73,51.44-7.79-17-112.3Z" transform="translate(-71.81 -100)"/><rect class="cls-8" x="181.5" y="226.75" width="34.68" height="11.27" transform="matrix(0.99, -0.15, 0.15, 0.99, -104.35, -67.62)"/><path class="cls-10" d="M248.85,105.12L254,138.89a9.3,9.3,0,0,1,3.06-.81l5.43-.82c4.5-.68,8.17,1.64,8.73,5.34L277,181.06c0.56,3.69-2.26,7-6.77,7.64l-5.43.82a9.34,9.34,0,0,1-3.15.18l4.2,27.73-51.44,7.79-17-112.3Z" transform="translate(-71.81 -100)"/><rect class="cls-8" x="214.93" y="221.69" width="34.68" height="11.27" transform="translate(-103.22 -62.67) rotate(-8.61)"/><circle class="cls-11" cx="205.95" cy="169.87" r="42.72" transform="translate(-94.91 -67.26) rotate(-8.61)"/><path class="cls-5" d="M212.72,214.64a45.28,45.28,0,1,1,38-51.55A45.33,45.33,0,0,1,212.72,214.64Zm-12.79-84.48a40.16,40.16,0,1,0,45.72,33.7A40.21,40.21,0,0,0,199.93,130.16Z" transform="translate(-71.81 -100)"/><circle class="cls-12" cx="205.66" cy="169.65" r="31.21" transform="translate(-94.89 -67.3) rotate(-8.61)"/><circle class="cls-13" cx="190.94" cy="157.91" r="8.19" transform="translate(-93.3 -69.63) rotate(-8.61)"/><path class="cls-13" d="M216.57,233.65l-66,10s-7.23,1.25-56.91,68.65c0,0-14.65,23.55,1.87,35.72l41.86,29.16L172,371.93s7.49-7.37-17.58-25.84L129.86,327s23.65-40.6,40-13.73l16,105.87,1.92,12.71,57.44-8.7Z" transform="translate(-71.81 -100)"/><path class="cls-8" d="M129.78,326.89L116.39,317s14.82-29.82,35.67-33c0,0,15.75-3.4,17.65,29.21C169.71,313.25,155,287.33,129.78,326.89Z" transform="translate(-71.81 -100)"/><path class="cls-13" d="M132.14,254.94a6,6,0,0,0-8.45.84L87.56,299.92a6,6,0,0,0,.84,8.45l2.32,1.9a6,6,0,0,0,8.45-.84l36.12-44.14a6,6,0,0,0-.84-8.45Z" transform="translate(-71.81 -100)"/><path class="cls-13" d="M215.71,233.78L281,223.89s7.27-1,74.68,48.73c0,0,21,18.15,8.79,34.67l-31.35,40.24-34.63,5.24s-9.33-4.82,9.14-29.89l18.16-25.6s-35.13-31.7-41.93-1.32l16,105.87,1.92,12.71-57.44,8.7Z" transform="translate(-71.81 -100)"/><path class="cls-8" d="M325.53,297.25l9.87-13.39s-23-24.1-43.83-20.94c0,0-16.05,1.42-8.22,33.13C283.35,296,290.15,265.95,325.53,297.25Z" transform="translate(-71.81 -100)"/><path class="cls-13" d="M302,229.22a6,6,0,0,1,8.32-1.69L357.87,259a6,6,0,0,1,1.69,8.32l-1.66,2.5a6,6,0,0,1-8.32,1.69L302,240a6,6,0,0,1-1.7-8.32Z" transform="translate(-71.81 -100)"/><path class="cls-8" d="M207.2,386.06s-25.33.67-18.59,45.17l18.63,123L257,546.73l-18.63-123C231.59,379.2,207.23,386,207.2,386.06Z" transform="translate(-71.81 -100)"/><path class="cls-8" d="M259.2,544.19c-0.57-3.77-3.17-7-6.23-6.5l-44.81,6.78c-3.06.46-5.25,4.39-4.68,8.16l4.82,31.86c0.57,3.77,3.81,6.73,6.87,6.27L260,584c3.06-.46,4.61-4.15,4-7.92Z" transform="translate(-71.81 -100)"/><path class="cls-8" d="M269.35,376.65s-24.9.61-18.16,45.1l18.63,123,48.86-7.4L300,414.35C293.31,369.86,269.39,376.64,269.35,376.65Z" transform="translate(-71.81 -100)"/><path class="cls-8" d="M321.78,534.72c-0.57-3.77-3.41-6.93-6.48-6.47L270.49,535c-3.06.46-5,4.35-4.44,8.12L270.88,575c0.57,3.77,3.56,6.77,6.62,6.31l44.81-6.78c3.06-.46,4.86-4.19,4.29-8Z" transform="translate(-71.81 -100)"/><rect class="cls-14" x="174.12" y="327.91" width="115.31" height="18.21" transform="translate(-119.65 -61.5) rotate(-8.61)"/><rect class="cls-15" x="174.64" y="334.79" width="23.41" height="18.21" transform="translate(-121.18 -68.23) rotate(-8.61)"/><rect class="cls-8" x="223.76" y="269.4" width="47.69" height="19.94" transform="translate(-110.84 -59.79) rotate(-8.61)"/><rect class="cls-8" x="226.23" y="292.63" width="47.69" height="6.07" transform="translate(-113.25 -59.23) rotate(-8.61)"/><circle class="cls-8" cx="263.5" cy="254.92" r="4.61" transform="translate(-107 -57.67) rotate(-8.61)"/><rect class="cls-14" x="204.81" y="531.58" width="50.29" height="9.54" transform="translate(-149.51 -59.53) rotate(-8.61)"/><rect class="cls-14" x="267.39" y="522.17" width="49.42" height="9.54" transform="translate(-147.4 -50.33) rotate(-8.61)"/></g></g></svg>