<svg id="Layer_1" data-name="Layer 1" xmlns="http://www.w3.org/2000/svg" viewBox="0 0 478.32 199.68"><defs><style>.cls-1{fill:#106198;}.cls-2{fill:#fdfdfd;}.cls-3{fill:#fcfdfd;}.cls-4{fill:#fdfdfe;}.cls-5{fill:#126298;}.cls-6{fill:#136399;}</style></defs><title>bilka</title><path class="cls-1" d="M261.24,599.92q0-99.84,0-199.68H739.56q0,99.84,0,199.68H261.24Zm93.68-62.37c2.31,0,4.46,0,6.62,0,12.51-.17,25-0.25,37.53-0.6a43.71,43.71,0,0,0,15.54-3.22c4.35-1.8,7.89-4.53,10-8.89a24.36,24.36,0,0,0,1.94-12.43c-0.44-6.07-3.23-10.7-8.81-13.46a2.56,2.56,0,0,1-.46-0.37,38.45,38.45,0,0,0,3.18-2.25,17.23,17.23,0,0,0,2.62-2.78c2.9-3.93,3.29-8.48,3-13.15a16.85,16.85,0,0,0-3.69-10.19c-3-3.59-7.11-5.32-11.5-6.47a80.74,80.74,0,0,0-19.74-2.22c-11.72-.12-23.43-0.08-35.15-0.1-0.34,0-.68.06-1,0.09v76ZM510,537.46h25v-26.7l0.26-.06,17.44,26.76H580.2l-21.69-31.33,20.7-29.32h-1.39c-7.8,0-15.6,0-23.39,0a2,2,0,0,0-1.85,1q-7.6,11.07-15.25,22.11c-0.71,1-1.44,2.05-2.16,3.08l-0.3-.08V461.45H510v76Zm135.63,0c0-.46.05-0.85,0.05-1.24,0-12.48,0-25,0-37.43a43.4,43.4,0,0,0-.61-7c-0.95-5.58-3.71-10-8.79-12.75-4.46-2.41-9.34-3.2-14.31-3.56a100,100,0,0,0-27.19,2c-2.45.49-4.88,1.12-7.28,1.68v12.73c0.36,0,.64,0,0.91,0,7.39-.31,14.77-0.68,22.16-0.92a31.87,31.87,0,0,1,5.61.43c1.85,0.27,3.47,1.18,3.81,3.15,0.39,2.21.4,4.49,0.59,6.88h-1.59c-3.68,0-7.36,0-11,.13-5.28.21-10.54,0.62-15.57,2.45-5.47,2-9.06,5.68-9.88,11.56a39.46,39.46,0,0,0-.24,7.77c0.52,8.63,5.25,13.88,13.78,15.28,9,1.49,17.55-.33,25.69-4.31l1.21-.58v3.76h22.72Zm-147.27-76h-25v76h25v-76Zm-36.73,76.05v-45.4H436.66v45.4h24.95Zm0-54.21V461.49H436.68v21.79h24.93Z" transform="translate(-261.24 -400.24)"/><path class="cls-2" d="M354.92,537.55v-76c0.36,0,.7-0.09,1-0.09,11.72,0,23.43,0,35.15.1a80.74,80.74,0,0,1,19.74,2.22c4.39,1.15,8.48,2.88,11.5,6.47A16.85,16.85,0,0,1,426,480.41c0.28,4.68-.1,9.22-3,13.15a17.23,17.23,0,0,1-2.62,2.78,38.45,38.45,0,0,1-3.18,2.25,2.56,2.56,0,0,0,.46.37c5.58,2.76,8.37,7.39,8.81,13.46a24.36,24.36,0,0,1-1.94,12.43c-2.07,4.36-5.6,7.09-10,8.89a43.71,43.71,0,0,1-15.54,3.22c-12.51.35-25,.42-37.53,0.6C359.39,537.57,357.23,537.55,354.92,537.55ZM380,522.81c5.44,0,10.8.52,16.07-.79,2.53-.63,4.56-2.06,4.95-4.77a25.35,25.35,0,0,0,0-6.41,5.11,5.11,0,0,0-3.52-4.21,13.93,13.93,0,0,0-4.16-1c-4.3-.19-8.62-0.19-12.93-0.26a1.31,1.31,0,0,0-.38.14v17.3Zm0-30.52c4.64-.13,9.12-0.06,13.57-0.42,5.66-.46,7.73-3,7.57-8.65-0.1-3.71-1.65-5.72-5.29-6.51-5.17-1.13-10.42-.7-15.65-0.6a0.54,0.54,0,0,0-.2.14v16Z" transform="translate(-261.24 -400.24)"/><path class="cls-2" d="M510,537.46v-76h24.9v41.42l0.3,0.08c0.72-1,1.45-2,2.16-3.08q7.63-11.05,15.25-22.11a2,2,0,0,1,1.85-1c7.8,0,15.6,0,23.39,0h1.39l-20.7,29.32,21.69,31.33H552.65L535.21,510.7l-0.26.06v26.7H510Z" transform="translate(-261.24 -400.24)"/><path class="cls-2" d="M645.61,537.48H622.9v-3.76l-1.21.58c-8.14,4-16.66,5.8-25.69,4.31-8.53-1.4-13.26-6.66-13.78-15.28a39.46,39.46,0,0,1,.24-7.77c0.82-5.88,4.42-9.56,9.88-11.56,5-1.83,10.29-2.24,15.57-2.45,3.67-.15,7.36-0.09,11-0.13h1.59c-0.19-2.39-.2-4.67-0.59-6.88-0.34-2-2-2.88-3.81-3.15a31.87,31.87,0,0,0-5.61-.43c-7.39.24-14.78,0.6-22.16,0.92-0.27,0-.55,0-0.91,0V479.15c2.4-.56,4.83-1.19,7.28-1.68a100,100,0,0,1,27.19-2c5,0.36,9.86,1.15,14.31,3.56,5.08,2.74,7.85,7.17,8.79,12.75a43.4,43.4,0,0,1,.61,7c0.06,12.48,0,25,0,37.43C645.67,536.63,645.63,537,645.61,537.48Zm-24.09-25.8c-1.51,0-2.9-.06-4.29,0-2.43.13-4.87,0.2-7.27,0.57a4.4,4.4,0,0,0-3.93,4.21,28.64,28.64,0,0,0-.1,5,4.08,4.08,0,0,0,3.6,4c4.21,0.74,8.13-.38,12-1.94V511.67Z" transform="translate(-261.24 -400.24)"/><path class="cls-3" d="M498.34,461.43v76h-25v-76h25Z" transform="translate(-261.24 -400.24)"/><path class="cls-2" d="M461.61,537.49H436.66v-45.4h24.95v45.4Z" transform="translate(-261.24 -400.24)"/><path class="cls-4" d="M461.62,483.28H436.68V461.49h24.93v21.79Z" transform="translate(-261.24 -400.24)"/><path class="cls-5" d="M380,522.81V505.5a1.31,1.31,0,0,1,.38-0.14c4.31,0.07,8.62.06,12.93,0.26a13.93,13.93,0,0,1,4.16,1,5.11,5.11,0,0,1,3.52,4.21,25.35,25.35,0,0,1,0,6.41c-0.38,2.71-2.42,4.15-4.95,4.77C390.8,523.33,385.45,522.81,380,522.81Z" transform="translate(-261.24 -400.24)"/><path class="cls-5" d="M380,492.28v-16a0.54,0.54,0,0,1,.2-0.14c5.23-.1,10.48-0.53,15.65.6,3.64,0.79,5.19,2.8,5.29,6.51,0.16,5.65-1.91,8.19-7.57,8.65C389.13,492.23,384.65,492.16,380,492.28Z" transform="translate(-261.24 -400.24)"/><path class="cls-6" d="M621.52,511.67v11.92c-3.86,1.56-7.78,2.68-12,1.94a4.08,4.08,0,0,1-3.6-4,28.64,28.64,0,0,1,.1-5,4.4,4.4,0,0,1,3.93-4.21c2.4-.36,4.84-0.44,7.27-0.57C618.62,511.61,620,511.67,621.52,511.67Z" transform="translate(-261.24 -400.24)"/></svg>