<svg id="objects" xmlns="http://www.w3.org/2000/svg" viewBox="0 0 70.33 96.5"><defs><style>.cls-1{fill:#c95900;fill-rule:evenodd;}</style></defs><title>bird</title><path class="cls-1" d="M403.62,253.23l1.6-1.8-7.59-4,2.92-2.07-6.35-4.44,4.44-1.08-2.25-1.73a1.46,1.46,0,0,1,.5-0.51c13.37,0.6,25.19,5.66,36.3,12.7,4.19,2.66,5.87,6.83,6.66,11.58a72.4,72.4,0,0,0,2.28,8c3.11-1.84,5.47-4.14,8.13-4.56,2.48-.4,5.28,1.2,8,2.49-6.13,1.69-6.31,7.18-8.22,11.38-0.2.45,0.59,1.63,1.2,2.1a28,28,0,0,0,5.14,3.37,11.42,11.42,0,0,1,6.87,8.7c2.41,12.8,1.54,25.33-3.4,37.45-0.46,1.12-1.52,2-2.51,3.25l-4.34-7.2-1.62.49c0.08-7.14-3.58-12.92-7.22-18.3s-8.75-9.94-13.69-15.38c-2.53,4.91-5,9.37-7.16,14-1.54,3.35-3.47,4.37-7,2.88-6.44-2.74-11.1-7-12.75-14a28.57,28.57,0,0,1-1.23-6c0-.87,1.34-2.29,2.32-2.56,4.81-1.3,9.72-2.24,14.56-3.44a23,23,0,0,0,3.53-1.36c-2-4.07-4-7.55-5.38-11.26a48.88,48.88,0,0,0-9.48-15.42A29,29,0,0,0,403.62,253.23Z" transform="translate(-394.21 -237.58)"/></svg>