<svg xmlns="http://www.w3.org/2000/svg" viewBox="0 0 171.87 147.12"><defs><style>.cls-1{isolation:isolate;}.cls-2{fill:#e0e3e2;opacity:0.3;mix-blend-mode:multiply;}.cls-3{fill:#fff;}.cls-4{fill:#f1f3fa;}</style></defs><title>cloud</title><g class="cls-1"><g id="OBJECTS"><ellipse class="cls-2" cx="89.29" cy="142.36" rx="78.41" ry="4.76"/><path class="cls-3" d="M668.75,141.38a37.5,37.5,0,0,0-61.49,15.12l0.36,0.26a22.85,22.85,0,0,1,8.31,15,27.11,27.11,0,0,0-24.27-17.43A30.83,30.83,0,0,0,561.48,182a22.53,22.53,0,0,1,11.73,5.24,27.32,27.32,0,0,0-11.88-3.07c0,0.07,0,.15,0,0.22-0.61,0-1.22-.08-1.84-0.08a24.25,24.25,0,0,0-6,.75l-0.07,0-1.09.31-0.17.06a24.19,24.19,0,0,0,12.59,46.65,37.45,37.45,0,0,0,20.95,11.35C658.9,214.66,668,148.75,668.75,141.38Z" transform="translate(-535.3 -130.97)"/><path class="cls-4" d="M597.28,243.64a30.83,30.83,0,0,0,33.19.35,34.17,34.17,0,0,0,48.84-13.41,28.18,28.18,0,0,0,.58-56.34,37.85,37.85,0,0,0,.44-5.76,37.4,37.4,0,0,0-11.59-27.1c-0.79,7.37-9.85,73.27-83.06,102.05A37.1,37.1,0,0,0,597.28,243.64Z" transform="translate(-535.3 -130.97)"/></g></g></svg>