<svg id="Objects" xmlns="http://www.w3.org/2000/svg" viewBox="0 0 66.52 60.73"><defs><style>.cls-1{fill:#734122;}.cls-2{fill:#94542c;}.cls-3{fill:#ffebcf;}.cls-4,.cls-5{fill:#8a522d;}.cls-5{opacity:0.5;}.cls-6,.cls-7{fill:#fff;}.cls-6{opacity:0.1;}</style></defs><title>cow</title><path class="cls-1" d="M287.64,506.4c6,1,11.67,9.23,11.67,9.23s-8.08,5.88-14.06,4.86-9.6-10.27-9.6-10.27S281.66,505.38,287.64,506.4Z" transform="translate(-232.79 -494.97)"/><path class="cls-2" d="M287.59,509.76c3.89,0.66,7.59,6,7.59,6s-5.25,3.82-9.14,3.16-6.24-6.68-6.24-6.68S283.7,509.1,287.59,509.76Z" transform="translate(-232.79 -494.97)"/><path class="cls-1" d="M244.47,506.4c-6,1-11.67,9.23-11.67,9.23s8.08,5.88,14.06,4.86,9.6-10.27,9.6-10.27S250.45,505.38,244.47,506.4Z" transform="translate(-232.79 -494.97)"/><path class="cls-2" d="M244.52,509.76c-3.89.66-7.59,6-7.59,6s5.25,3.82,9.14,3.16,6.24-6.68,6.24-6.68S248.41,509.1,244.52,509.76Z" transform="translate(-232.79 -494.97)"/><path class="cls-3" d="M254.38,495.55a0.45,0.45,0,0,0-.42-0.39,0.58,0.58,0,0,0-.59.23c-4.54,8-.58,12.56-0.41,12.75a0.59,0.59,0,0,0,.43.17,0.68,0.68,0,0,0,.2,0l5.63-1.75a0.44,0.44,0,0,0,.32-0.32,0.36,0.36,0,0,0-.2-0.37C254.44,502.93,254.38,495.62,254.38,495.55Z" transform="translate(-232.79 -494.97)"/><path class="cls-3" d="M278.74,495.21a0.58,0.58,0,0,0-.59-0.23,0.45,0.45,0,0,0-.42.39c0,0.07-.06,7.38-5,10.29a0.36,0.36,0,0,0-.2.37,0.44,0.44,0,0,0,.32.32l5.63,1.75a0.68,0.68,0,0,0,.2,0,0.59,0.59,0,0,0,.43-0.17C279.32,507.77,283.28,503.22,278.74,495.21Z" transform="translate(-232.79 -494.97)"/><ellipse class="cls-4" cx="33.26" cy="28.81" rx="20.27" ry="22.34"/><ellipse class="cls-3" cx="33.26" cy="47.8" rx="15.91" ry="12.93"/><ellipse class="cls-5" cx="26.87" cy="48.28" rx="4.62" ry="2.87"/><ellipse class="cls-5" cx="39.65" cy="48.28" rx="4.62" ry="2.87"/><path class="cls-6" d="M275.45,504a13.08,13.08,0,0,0,4.38,25.38A12.88,12.88,0,0,0,286,527.8a24.69,24.69,0,0,0,.33-4A22.71,22.71,0,0,0,275.45,504Z" transform="translate(-232.79 -494.97)"/><circle cx="24.13" cy="23.7" r="4.15"/><circle class="cls-7" cx="22.97" cy="22.55" r="1.23"/><circle cx="42.39" cy="23.7" r="4.15"/><circle class="cls-7" cx="41.24" cy="22.55" r="1.23"/></svg>