<svg id="Layer_1" data-name="Layer 1" xmlns="http://www.w3.org/2000/svg" viewBox="0 0 520 177.05"><defs><style>.cls-1{fill:#042f59;}.cls-2{fill:#043059;}.cls-3{fill:#032f59;}.cls-4{fill:#00214d;}.cls-5{fill:#00234e;}.cls-6{fill:#243f65;}.cls-7{fill:#001948;}.cls-8{fill:#031d4b;}.cls-9{fill:#29446a;}.cls-10{fill:#284469;}.cls-11{fill:#001f4c;}.cls-12{fill:#1d3d65;}</style></defs><title>Foetex</title><path class="cls-1" d="M721.85,590.31a33.47,33.47,0,0,1-2.21-4.23c-3.46-9.69-6.84-19.41-10.59-30.1-0.77,1.72-1.25,2.61-1.57,3.54-3.19,9.12-6.33,18.25-9.56,27.35a23.48,23.48,0,0,1-1.82,3.35c-1.66-.41-3.32-1.15-5-1.17-11.2-.1-22.4,0-33.61,0,6.41-18.2,12.75-36.43,19.3-54.58a13,13,0,0,0,0-9.56c-6.35-17.34-12.49-34.76-18.69-52.16-0.38-1.08-.69-2.18-1.15-3.66h39.71l12.22,33.82L721.16,469H761v1c-0.61,1.35-1.33,2.67-1.82,4.07-5.54,15.5-10.73,31.13-16.69,46.46-2.52,6.48-2.4,12,.08,18.5,6.29,16.44,11.78,33.19,17.59,49.82l-0.32.33c-11.49-.06-23-0.15-34.48-0.12C724.18,589.06,723,589.88,721.85,590.31Z" transform="translate(-241 -413.95)"/><path class="cls-2" d="M335.86,416l0,20-1.87,3.2c-5.49.07-11,.11-16.46,0.21-5.29.1-6.81,1.59-6.85,6.9-0.06,7.3,0,14.6,0,22.29h25v21.52H310.91c-0.11,2.16-.26,3.9-0.26,5.64q0,44,0,87.91c0,1.82-.2,3.63-0.3,5.45-12,0-24-.11-35.94,0-1.12,0-2.23.84-3.34,1.3a22.08,22.08,0,0,1-.91-4.41q-0.08-44.85,0-89.7c0-1.8,0-3.6,0-6.25H241V469h28.65c0.18-1.75.42-3,.42-4.24,0-9.47-.25-18.94.13-28.39a51.24,51.24,0,0,1,2.53-13.58,11.67,11.67,0,0,1,8.18-8c1.68,0.4,3.37,1.14,5.05,1.15C302.6,416,319.23,416,335.86,416Z" transform="translate(-241 -413.95)"/><path class="cls-1" d="M760.15,588.85a1.34,1.34,0,0,1,.85.15v2l-1-.52-0.14-1.31Z" transform="translate(-241 -413.95)"/><path class="cls-3" d="M350.31,497.87c0.53-14.87,12.76-28,27.91-28.86a285.07,285.07,0,0,1,32.93,0,30.32,30.32,0,0,1,28.14,29.29q0.53,31.45,0,62.91c-0.26,15-12.32,27.44-27.22,29-1-.39-2-1.11-3.07-1.12q-14.47-.13-28.94,0a10.65,10.65,0,0,0-3.12,1.05A30.33,30.33,0,0,1,350.32,562c0.56-1,1.6-2.05,1.61-3.08q0.15-28.67,0-57.33C351.92,500.33,350.87,499.1,350.31,497.87Zm51.22,35.92-0.9-.4c-4.07,8.48-8.32,16.89-12.06,25.51a9.61,9.61,0,0,0,.3,7.18c0.93,1.91,3.46,4,5.42,4.18s4.5-1.69,6.06-3.35c1-1.11,1.1-3.42,1.12-5.19C401.58,552.41,401.53,543.1,401.53,533.79Zm-13.46-7.9,0.9,0.24c4.1-8.64,8.26-17.26,12.23-26,0.57-1.26.38-3,.25-4.43-0.37-4.14-3.05-6.81-6.6-6.77a6.81,6.81,0,0,0-6.72,6.73C387.94,505.75,388.07,515.82,388.07,525.88Z" transform="translate(-241 -413.95)"/><path class="cls-2" d="M553.87,495l0.29-1.94c1.48-.29,2.33-0.78.66-2.07,3.32-11.93,14.26-21.32,26.8-21.94a304.66,304.66,0,0,1,32.44,0c15.48,0.88,27.87,13.84,28.45,29.61,0.46,12.63.09,25.3,0.07,37.95a7.52,7.52,0,0,1-.54,1.75c-11.58,0-23.21-.07-34.84,0-5.28,0-10.55.45-15.82,0.69-0.45.6-1.29,1.2-1.29,1.81-0.09,7.56-.11,15.12,0,22.68,0,0.89,1.07,1.76,1.65,2.64,2.06,2.85,4.45,5.18,8.34,3.81s4.95-4.51,4.83-8.37c-0.13-4.15,0-8.31,0-12.86h37c5.49,18.9-6.91,38.91-25.81,41.38a5.88,5.88,0,0,0-2.11-1q-14.85-.1-29.7,0c-0.76,0-1.52.9-2.28,1.38-12.15-.27-26.24-11.11-28-25.5,1.39-1.58,1.83-3-.58-4.06-0.09-14.49-.21-29-0.26-43.46,0-5.83.12-11.65,0.19-17.48C556,498.63,555.43,496.85,553.87,495Zm37.86,22.1H604.9c0-6.85-.1-13.14,0-19.41,0.08-3.84-.82-7.06-4.71-8.42s-6.28,1-8.37,3.79c-0.62,1-1.75,1.9-1.78,2.87q-0.25,9.07,0,18.15C590.1,515.06,591.16,516.05,591.74,517.06Z" transform="translate(-241 -413.95)"/><path class="cls-3" d="M512.89,565l5.12,6.14c0.48,2.15,1.46,2.52,3,.83h12l3,0.2L536.47,589c-10.94,0-21.88-.05-32.82,0A23.89,23.89,0,0,0,499,590c-14.88-1.9-26-15-26.08-31.15-0.13-20.82,0-41.64,0-62.46,0-1.81,0-3.62,0-6H451.6V468.75h21.17V436c15.32,0.63,26.07-6.81,35.27-17.4,0.69-.79,2.13-0.92,3.22-1.36-0.09,16-.2,31.9-0.18,47.85,0,1,1.16,2,1.77,2.94,4.24,0.25,8.49.58,12.73,0.73,3.47,0.12,6.94,0,10.77,0v21.55c-5.92,0-11.82-.06-17.72,0a53.9,53.9,0,0,0-5.78.69c-0.62,1.14-1.77,2.28-1.78,3.43q-0.16,33.58,0,67.16C511.09,562.73,512.26,563.86,512.89,565Z" transform="translate(-241 -413.95)"/><path class="cls-4" d="M512.89,565c-0.63-1.13-1.81-2.26-1.81-3.39q-0.16-33.58,0-67.16c0-1.14,1.16-2.28,1.78-3.43Q512.87,528,512.89,565Z" transform="translate(-241 -413.95)"/><path class="cls-5" d="M350.31,497.87c0.56,1.23,1.61,2.47,1.62,3.7q0.16,28.67,0,57.33c0,1-1,2.06-1.61,3.08Q350.32,529.93,350.31,497.87Z" transform="translate(-241 -413.95)"/><path class="cls-6" d="M335.86,416c-16.63,0-33.27,0-49.9-.12-1.69,0-3.37-.75-5.05-1.15a18.74,18.74,0,0,1,3.31-.59q24.06-.06,48.12,0C333.63,414.19,336,413,335.86,416Z" transform="translate(-241 -413.95)"/><path class="cls-4" d="M512.86,468c-0.62-1-1.77-2-1.77-2.94,0-16,.09-31.9.18-47.85,0.57,1.16,1.63,2.32,1.64,3.48C513,436.45,512.89,452.22,512.86,468Z" transform="translate(-241 -413.95)"/><path class="cls-7" d="M657.52,589c11.2,0,22.41-.06,33.61,0,1.66,0,3.32.76,5,1.17-4.78.18-9.55,0.46-14.33,0.51-7.32.09-14.65,0-22,0C658.78,590.71,656.81,591.54,657.52,589Z" transform="translate(-241 -413.95)"/><path class="cls-7" d="M271,590.35c1.11-.45,2.23-1.29,3.34-1.3,12-.06,24,0,35.94,0-0.64.54-1.29,1.57-1.93,1.56C295.93,590.64,283.48,590.48,271,590.35Z" transform="translate(-241 -413.95)"/><path class="cls-7" d="M759.83,589.18l0.14,1.31-38.12-.17c1.16-.44,2.33-1.25,3.49-1.25C736.84,589,748.33,589.12,759.83,589.18Z" transform="translate(-241 -413.95)"/><path class="cls-8" d="M499,590a23.89,23.89,0,0,1,4.64-.95c10.94-.08,21.88,0,32.82,0-0.4.57-.81,1.66-1.21,1.65C523.18,590.51,511.09,590.24,499,590Z" transform="translate(-241 -413.95)"/><path class="cls-9" d="M377,590.17a10.65,10.65,0,0,1,3.12-1.05q14.47-.12,28.94,0c1,0,2,.73,3.07,1.12-6.77.22-13.54,0.59-20.31,0.61C386.83,590.87,381.89,590.42,377,590.17Z" transform="translate(-241 -413.95)"/><path class="cls-10" d="M581.95,590.52c0.76-.48,1.52-1.38,2.28-1.38q14.85-.14,29.7,0a5.88,5.88,0,0,1,2.11,1,60.05,60.05,0,0,1-6.81.72C600.14,590.83,591,590.65,581.95,590.52Z" transform="translate(-241 -413.95)"/><path class="cls-11" d="M591.74,566.17c-0.57-.88-1.63-1.75-1.65-2.64-0.14-7.56-.11-15.12,0-22.68,0-.61.84-1.21,1.29-1.81Z" transform="translate(-241 -413.95)"/><path class="cls-12" d="M553.87,495c1.56,1.9,2.11,3.67-.59,5.07Z" transform="translate(-241 -413.95)"/><path class="cls-6" d="M334,439.19l1.87-3.2C335.8,437.4,337.37,439.75,334,439.19Z" transform="translate(-241 -413.95)"/><path class="cls-12" d="M553.35,561c2.4,1,2,2.48.58,4.06Z" transform="translate(-241 -413.95)"/><path class="cls-8" d="M521,572c-1.54,1.69-2.52,1.33-3-.83Z" transform="translate(-241 -413.95)"/><path class="cls-8" d="M535.94,572.14l-3-.2Z" transform="translate(-241 -413.95)"/><path class="cls-12" d="M554.82,490.94c1.67,1.29.82,1.78-.66,2.07Z" transform="translate(-241 -413.95)"/><path class="cls-11" d="M591.86,493l-0.12,24c-0.58-1-1.63-2-1.66-3q-0.24-9.07,0-18.15C590.11,494.91,591.24,494,591.86,493Z" transform="translate(-241 -413.95)"/></svg>