<svg id="Objects" xmlns="http://www.w3.org/2000/svg" viewBox="0 0 100.67 120.32"><defs><style>.cls-1{fill:#3e934e;}.cls-2{fill:#64626d;}.cls-3{fill:#f88916;}.cls-4{fill:#bfbfbf;}.cls-5{fill:#918ea5;}.cls-6{fill:#3e9300;}</style></defs><title>infographic1</title><g id="_Group_" data-name="&lt;Group&gt;"><g id="_Group_2" data-name="&lt;Group&gt;"><g id="_Group_3" data-name="&lt;Group&gt;"><g id="_Group_4" data-name="&lt;Group&gt;"><g id="_Group_5" data-name="&lt;Group&gt;"><g id="_Group_6" data-name="&lt;Group&gt;"><g id="_Group_7" data-name="&lt;Group&gt;"><path id="_Path_" data-name="&lt;Path&gt;" class="cls-1" d="M162.91,199.66c-3.67,3.67-10.21,3.1-10.21,3.1s-0.57-6.53,3.1-10.21,10.21-3.1,10.21-3.1S166.58,196,162.91,199.66Z" transform="translate(-82.13 -117.61)"/><path id="_Path_2" data-name="&lt;Path&gt;" class="cls-1" d="M149.53,192.56c3.67,3.67,3.1,10.21,3.1,10.21s-6.53.57-10.21-3.1-3.1-10.21-3.1-10.21S145.86,188.88,149.53,192.56Z" transform="translate(-82.13 -117.61)"/></g><g id="_Group_8" data-name="&lt;Group&gt;"><path id="_Path_3" data-name="&lt;Path&gt;" class="cls-2" d="M103.91,217.77H92.13c0-53,43.87-64.19,57.31-66.35L151.31,163C137.06,165.34,103.91,175.25,103.91,217.77Z" transform="translate(-82.13 -117.61)"/><circle id="_Path_4" data-name="&lt;Path&gt;" class="cls-3" cx="15.81" cy="100.16" r="10.72"/><rect id="_Rectangle_" data-name="&lt;Rectangle&gt;" class="cls-4" x="119.59" y="117.25" width="10.59" height="22.53" transform="translate(-134.63 36.33) rotate(-53.98)"/><path id="_Path_5" data-name="&lt;Path&gt;" class="cls-3" d="M138.19,171.05h29.7V146.27l-33.13-21.84L121,138.18l16.11,11.52Z" transform="translate(-82.13 -117.61)"/><rect id="_Rectangle_2" data-name="&lt;Rectangle&gt;" class="cls-4" x="59.5" y="53.45" width="23.32" height="11.29"/><rect id="_Rectangle_3" data-name="&lt;Rectangle&gt;" class="cls-2" x="20.96" y="107.2" width="59.39" height="7.36"/><rect id="_Rectangle_4" data-name="&lt;Rectangle&gt;" class="cls-5" x="48.94" y="91.73" width="16.69" height="15.46"/><rect id="_Rectangle_5" data-name="&lt;Rectangle&gt;" class="cls-3" x="42.75" y="85.35" width="52.82" height="6.38"/></g></g><rect id="_Rectangle_6" data-name="&lt;Rectangle&gt;" class="cls-6" y="114.56" width="100.67" height="5.77"/></g></g></g></g></g></svg>