<svg id="Objects" xmlns="http://www.w3.org/2000/svg" viewBox="0 0 157.8 130.24"><defs><style>.cls-1{fill:#82cc3f;}.cls-2{fill:#6d542f;}.cls-3{fill:#a8332d;}.cls-4{fill:#3e934e;}.cls-5{fill:#604c30;}</style></defs><title>infographic2</title><g id="_Group_" data-name="&lt;Group&gt;"><g id="_Group_2" data-name="&lt;Group&gt;"><g id="_Group_3" data-name="&lt;Group&gt;"><g id="_Group_4" data-name="&lt;Group&gt;"><g id="_Group_5" data-name="&lt;Group&gt;"><g id="_Group_6" data-name="&lt;Group&gt;"><g id="_Group_7" data-name="&lt;Group&gt;"><g id="_Group_8" data-name="&lt;Group&gt;"><path id="_Path_" data-name="&lt;Path&gt;" class="cls-1" d="M638.1,371.51a15.45,15.45,0,0,0-13.76-17l-0.48,0a14.32,14.32,0,0,0,.57-2.81,14.09,14.09,0,0,0-25.62-9.5A15.74,15.74,0,0,0,571.18,351a15.89,15.89,0,0,0,.56,6,14.78,14.78,0,0,0,3,29.24,13.58,13.58,0,0,0-.21,1.35A13.27,13.27,0,0,0,599.62,395a14.17,14.17,0,0,0,26-6.31,14.35,14.35,0,0,0-.09-3.51A15.43,15.43,0,0,0,638.1,371.51Z" transform="translate(-560.07 -336.11)"/><polygon id="_Path_2" data-name="&lt;Path&gt;" class="cls-2" points="41.18 113.34 37.25 113.34 37.25 55.17 28.29 40.33 29.36 40.33 39.21 53.47 48.95 40.33 50.08 40.33 41.18 55.12 41.18 113.34"/></g><path id="_Path_3" data-name="&lt;Path&gt;" class="cls-3" d="M573.3,368.13a2.35,2.35,0,0,1-2.92,0c-1.56,0-2.82,1.56-2.82,3.49s1.26,3.49,2.82,3.49a2.35,2.35,0,0,1,2.92,0c1.56,0,2.82-1.56,2.82-3.49S574.86,368.13,573.3,368.13Z" transform="translate(-560.07 -336.11)"/><path id="_Path_4" data-name="&lt;Path&gt;" class="cls-3" d="M586.15,354.78a2.35,2.35,0,0,1-2.92,0c-1.56,0-2.82,1.56-2.82,3.49s1.26,3.49,2.82,3.49a2.35,2.35,0,0,1,2.92,0c1.56,0,2.82-1.56,2.82-3.49S587.71,354.78,586.15,354.78Z" transform="translate(-560.07 -336.11)"/><path id="_Path_5" data-name="&lt;Path&gt;" class="cls-3" d="M597.89,367.34a2.35,2.35,0,0,1-2.92,0c-1.56,0-2.82,1.56-2.82,3.49s1.26,3.49,2.82,3.49a2.35,2.35,0,0,1,2.92,0c1.56,0,2.82-1.56,2.82-3.49S599.45,367.34,597.89,367.34Z" transform="translate(-560.07 -336.11)"/><path id="_Path_6" data-name="&lt;Path&gt;" class="cls-3" d="M618,364.64a2.35,2.35,0,0,1-2.92,0c-1.56,0-2.82,1.56-2.82,3.49s1.26,3.49,2.82,3.49a2.35,2.35,0,0,1,2.92,0c1.56,0,2.82-1.56,2.82-3.49S619.6,364.64,618,364.64Z" transform="translate(-560.07 -336.11)"/><path id="_Path_7" data-name="&lt;Path&gt;" class="cls-3" d="M607.32,352.4a2.35,2.35,0,0,1-2.92,0c-1.56,0-2.82,1.56-2.82,3.49s1.26,3.49,2.82,3.49a2.35,2.35,0,0,1,2.92,0c1.56,0,2.82-1.56,2.82-3.49S608.88,352.4,607.32,352.4Z" transform="translate(-560.07 -336.11)"/><path id="_Path_8" data-name="&lt;Path&gt;" class="cls-3" d="M586.15,340.18a2.35,2.35,0,0,1-2.92,0c-1.56,0-2.82,1.56-2.82,3.49s1.26,3.49,2.82,3.49a2.35,2.35,0,0,1,2.92,0c1.56,0,2.82-1.56,2.82-3.49S587.71,340.18,586.15,340.18Z" transform="translate(-560.07 -336.11)"/><path id="_Path_9" data-name="&lt;Path&gt;" class="cls-3" d="M629.62,370.83a2.35,2.35,0,0,1-2.92,0c-1.56,0-2.82,1.56-2.82,3.49s1.26,3.49,2.82,3.49a2.35,2.35,0,0,1,2.92,0c1.56,0,2.82-1.56,2.82-3.49S631.18,370.83,629.62,370.83Z" transform="translate(-560.07 -336.11)"/><path id="_Path_10" data-name="&lt;Path&gt;" class="cls-3" d="M615.89,341.45a2.35,2.35,0,0,1-2.92,0c-1.56,0-2.82,1.56-2.82,3.49s1.26,3.49,2.82,3.49a2.35,2.35,0,0,1,2.92,0c1.56,0,2.82-1.56,2.82-3.49S617.45,341.45,615.89,341.45Z" transform="translate(-560.07 -336.11)"/><path id="_Path_11" data-name="&lt;Path&gt;" class="cls-3" d="M615.89,387.61a2.35,2.35,0,0,1-2.92,0c-1.56,0-2.82,1.56-2.82,3.49s1.26,3.49,2.82,3.49a2.35,2.35,0,0,1,2.92,0c1.56,0,2.82-1.56,2.82-3.49S617.45,387.61,615.89,387.61Z" transform="translate(-560.07 -336.11)"/><path id="_Path_12" data-name="&lt;Path&gt;" class="cls-3" d="M584.64,390.47a2.35,2.35,0,0,1-2.92,0c-1.56,0-2.82,1.56-2.82,3.49s1.26,3.49,2.82,3.49a2.35,2.35,0,0,1,2.92,0c1.56,0,2.82-1.56,2.82-3.49S586.2,390.47,584.64,390.47Z" transform="translate(-560.07 -336.11)"/></g><g id="_Group_9" data-name="&lt;Group&gt;"><g id="_Group_10" data-name="&lt;Group&gt;"><path id="_Path_13" data-name="&lt;Path&gt;" class="cls-1" d="M717.79,371.51a15.45,15.45,0,0,0-13.76-17l-0.48,0a14.33,14.33,0,0,0,.57-2.81,14.09,14.09,0,0,0-25.62-9.5A15.74,15.74,0,0,0,650.87,351a15.89,15.89,0,0,0,.56,6,14.78,14.78,0,0,0,3,29.24,13.56,13.56,0,0,0-.2,1.35A13.27,13.27,0,0,0,679.31,395a14.17,14.17,0,0,0,26-6.31,14.35,14.35,0,0,0-.09-3.51A15.43,15.43,0,0,0,717.79,371.51Z" transform="translate(-560.07 -336.11)"/><polygon id="_Path_14" data-name="&lt;Path&gt;" class="cls-2" points="120.87 113.34 116.94 113.34 116.94 55.17 107.98 40.33 109.05 40.33 118.9 53.47 128.64 40.33 129.77 40.33 120.87 55.12 120.87 113.34"/></g><path id="_Path_15" data-name="&lt;Path&gt;" class="cls-3" d="M653,368.13a2.35,2.35,0,0,1-2.92,0c-1.56,0-2.82,1.56-2.82,3.49s1.26,3.49,2.82,3.49a2.35,2.35,0,0,1,2.92,0c1.56,0,2.82-1.56,2.82-3.49S654.55,368.13,653,368.13Z" transform="translate(-560.07 -336.11)"/><path id="_Path_16" data-name="&lt;Path&gt;" class="cls-3" d="M665.84,354.78a2.35,2.35,0,0,1-2.92,0c-1.56,0-2.82,1.56-2.82,3.49s1.26,3.49,2.82,3.49a2.35,2.35,0,0,1,2.92,0c1.56,0,2.82-1.56,2.82-3.49S667.4,354.78,665.84,354.78Z" transform="translate(-560.07 -336.11)"/><path id="_Path_17" data-name="&lt;Path&gt;" class="cls-3" d="M677.58,367.34a2.35,2.35,0,0,1-2.92,0c-1.56,0-2.82,1.56-2.82,3.49s1.26,3.49,2.82,3.49a2.35,2.35,0,0,1,2.92,0c1.56,0,2.82-1.56,2.82-3.49S679.14,367.34,677.58,367.34Z" transform="translate(-560.07 -336.11)"/><path id="_Path_18" data-name="&lt;Path&gt;" class="cls-3" d="M697.73,364.64a2.35,2.35,0,0,1-2.92,0c-1.56,0-2.82,1.56-2.82,3.49s1.26,3.49,2.82,3.49a2.35,2.35,0,0,1,2.92,0c1.56,0,2.82-1.56,2.82-3.49S699.29,364.64,697.73,364.64Z" transform="translate(-560.07 -336.11)"/><path id="_Path_19" data-name="&lt;Path&gt;" class="cls-3" d="M687,352.4a2.35,2.35,0,0,1-2.92,0c-1.56,0-2.82,1.56-2.82,3.49s1.26,3.49,2.82,3.49a2.35,2.35,0,0,1,2.92,0c1.56,0,2.82-1.56,2.82-3.49S688.57,352.4,687,352.4Z" transform="translate(-560.07 -336.11)"/><path id="_Path_20" data-name="&lt;Path&gt;" class="cls-3" d="M665.84,340.18a2.35,2.35,0,0,1-2.92,0c-1.56,0-2.82,1.56-2.82,3.49s1.26,3.49,2.82,3.49a2.35,2.35,0,0,1,2.92,0c1.56,0,2.82-1.56,2.82-3.49S667.4,340.18,665.84,340.18Z" transform="translate(-560.07 -336.11)"/><path id="_Path_21" data-name="&lt;Path&gt;" class="cls-3" d="M709.31,370.83a2.35,2.35,0,0,1-2.92,0c-1.56,0-2.82,1.56-2.82,3.49s1.26,3.49,2.82,3.49a2.35,2.35,0,0,1,2.92,0c1.56,0,2.82-1.56,2.82-3.49S710.87,370.83,709.31,370.83Z" transform="translate(-560.07 -336.11)"/><path id="_Path_22" data-name="&lt;Path&gt;" class="cls-3" d="M695.58,341.45a2.35,2.35,0,0,1-2.92,0c-1.56,0-2.82,1.56-2.82,3.49s1.26,3.49,2.82,3.49a2.35,2.35,0,0,1,2.92,0c1.56,0,2.82-1.56,2.82-3.49S697.14,341.45,695.58,341.45Z" transform="translate(-560.07 -336.11)"/><path id="_Path_23" data-name="&lt;Path&gt;" class="cls-3" d="M695.58,387.61a2.35,2.35,0,0,1-2.92,0c-1.56,0-2.82,1.56-2.82,3.49s1.26,3.49,2.82,3.49a2.35,2.35,0,0,1,2.92,0c1.56,0,2.82-1.56,2.82-3.49S697.14,387.61,695.58,387.61Z" transform="translate(-560.07 -336.11)"/><path id="_Path_24" data-name="&lt;Path&gt;" class="cls-3" d="M664.33,390.47a2.35,2.35,0,0,1-2.92,0c-1.56,0-2.82,1.56-2.82,3.49s1.26,3.49,2.82,3.49a2.35,2.35,0,0,1,2.92,0c1.56,0,2.82-1.56,2.82-3.49S665.89,390.47,664.33,390.47Z" transform="translate(-560.07 -336.11)"/></g><rect id="_Rectangle_" data-name="&lt;Rectangle&gt;" class="cls-4" x="14.33" y="109.51" width="127.57" height="10.36"/><rect id="_Rectangle_2" data-name="&lt;Rectangle&gt;" class="cls-5" x="14.33" y="119.87" width="127.57" height="10.36"/></g></g></g></g></g></g></svg>