<svg id="objects" xmlns="http://www.w3.org/2000/svg" viewBox="0 0 109.66 109.67"><defs><style>.cls-1{fill:#4060a5;}.cls-2{fill:#f1f2f2;}</style></defs><title>instagram</title><circle class="cls-1" cx="54.83" cy="54.83" r="54.83"/><path class="cls-2" d="M282.16,624H237.7a5.57,5.57,0,0,0-5.56,5.56V674a5.57,5.57,0,0,0,5.56,5.56h44.45a5.57,5.57,0,0,0,5.56-5.56V629.56a5.57,5.57,0,0,0-5.56-5.56h0Zm-22.23,16.68a11.11,11.11,0,1,1-11.11,11.11,11.14,11.14,0,0,1,11.11-11.11h0ZM239.09,674a1.31,1.31,0,0,1-1.38-1.38V649h5.84a9.25,9.25,0,0,0-.29,2.78,16.68,16.68,0,1,0,33.35,0,9.3,9.3,0,0,0-.28-2.78h5.83v23.63a1.31,1.31,0,0,1-1.38,1.38H239.09Zm43.07-37.5a1.31,1.31,0,0,1-1.38,1.38h-5.56a1.31,1.31,0,0,1-1.38-1.38v-5.56a1.31,1.31,0,0,1,1.38-1.38h5.56a1.31,1.31,0,0,1,1.38,1.38v5.56Zm0,0" transform="translate(-205.1 -596.95)"/></svg>