<?xml version="1.0" encoding="UTF-8" standalone="no"?>
<svg
   xmlns:dc="http://purl.org/dc/elements/1.1/"
   xmlns:cc="http://creativecommons.org/ns#"
   xmlns:rdf="http://www.w3.org/1999/02/22-rdf-syntax-ns#"
   xmlns:svg="http://www.w3.org/2000/svg"
   xmlns="http://www.w3.org/2000/svg"
   xmlns:sodipodi="http://sodipodi.sourceforge.net/DTD/sodipodi-0.dtd"
   xmlns:inkscape="http://www.inkscape.org/namespaces/inkscape"
   version="1.1"
   id="Layer_1"
   x="0px"
   y="0px"
   width="576"
   height="204"
   viewBox="0 0 576 204"
   enable-background="new 0 0 612 792"
   xml:space="preserve">
<rect
   x="139.565"
   y="143.82898"
   width="0"
   height="0.28299999"
   id="rect9"
   style="fill:#ffffff" />



<rect
   style="fill:#00539f"
   id="rect5"
   height="204"
   width="575.99677"
   y="-8.8626109e-007"
   x="-2.5607376e-006" /><path
   style="fill:#00539f"
   inkscape:connector-curvature="0"
   id="path7"
   d="M 287.99839,101.99997" /><polygon
   style="fill:#ffffff"
   points="176.797,362.45 204.712,362.443 204.719,449.244 176.781,449.258 "
   id="polygon11"
   transform="matrix(1.5873015,0,0,1.5873015,-231.89999,-547.34126)" /><path
   style="fill:#ffffff"
   inkscape:connector-curvature="0"
   d="m 204.77141,58.412675 c 5.41905,0.360317 11.37937,3.522222 14.26985,8.669841 1.53492,2.979365 2.43809,7.404761 2.34761,10.747618 l -0.0206,30.887296 -38.30476,0.0206 c 0,0 0.002,-16.265079 0.0302,-24.314285 -0.34127,-3.866667 -4.24445,-6.863492 -7.76667,-7.406349 -3.16032,-0.993651 -7.76666,0.903174 -10.11587,3.884127 -3.25079,3.703174 -2.35397,10.255555 -2.43968,14.720634 0.0222,2.119047 0.0428,70.225393 0.0428,70.225393 h -42.25079 l 0.0318,-107.074598 42.49841,0.03175 c 0,0 0.13016,7.374603 0.0397,8.368254 1.30318,-0.163492 2.18889,-0.849206 3.34127,-1.355556 3.85714,-1.69365 7.31587,-3.161904 11.37937,-4.515872 1.08412,-0.269842 16.79841,-3.522222 24.4746,-3.160318 l 2.44285,0.271429 z"
   id="path13" /><path
   style="fill:#ffffff"
   inkscape:connector-curvature="0"
   d="m 377.6349,58.320611 c 0.45238,0 1.35555,0.09048 1.80635,0 9.03174,0.361905 19.50793,3.612699 23.12063,13.187301 0,0 0.72381,1.534921 0.99365,2.347619 0,0 0.95873,1.790476 0.90318,10.296825 -0.005,0.906349 0,81.634914 0,81.634914 l -42.9873,0.006 -0.002,-79.023804 c -0.27143,-0.722222 -0.27143,-1.446031 -0.36191,-2.347619 -0.99206,-3.431746 -3.97301,-6.05238 -7.31428,-7.044444 -2.16826,-0.360317 -4.4254,-0.179365 -6.32222,0.452381 -0.45238,0.269841 -0.8127,0.360318 -1.35556,0.54127 -2.34762,1.355555 -4.33492,3.433333 -4.7873,6.322222 l 0.01,81.104754 h -43.73333 c 0,0 0.1127,-65.73491 0.01,-81.104754 -0.39842,-4.450794 -3.70318,-6.231746 -6.77461,-7.044444 -3.34127,-1.174603 -8.03809,-0.180953 -10.83809,2.709523 -3.52222,2.980953 -2.80952,8.580952 -2.80952,13.006349 l -0.0206,72.482536 -42.96031,-0.0206 V 58.863469 h 42.80952 c 0,0 0.073,5.073015 0.0397,7.947618 0.63175,0.361905 1.76667,-0.361905 2.30794,-0.450793 7.22539,-3.161905 13.36666,-4.787302 21.67619,-6.503175 9.30158,-1.446031 19.77936,-2.349206 29.17142,0.812699 3.52222,0.812698 7.31587,3.341269 9.75397,6.412698 1.44444,0.361904 2.34762,-0.452381 3.6127,-0.993651 4.15397,-1.446032 7.94603,-2.890476 11.92063,-4.244444 4.51588,-0.903175 8.57937,-2.257143 13.1873,-2.8 2.89365,-0.361905 5.96349,-0.903175 8.94445,-0.72381 z"
   id="path15" /><path
   style="fill:#ffffff"
   inkscape:connector-curvature="0"
   d="m 484.11743,57.598389 c 0.36191,0 0.90318,0 1.35556,-0.09048 14.26984,0.72381 31.61111,0.993651 42.0873,12.825396 2.34761,2.571429 4.15396,7.67619 4.15396,7.67619 1.01429,2.044445 1.02858,2.54127 1.20953,4.979365 l 0.0556,1.342857 v 67.195239 c 0,0 1.9873,10.11587 4.96667,14.26984 -1.89206,-0.005 -42.53492,-0.0175 -43.98413,-0.0286 -0.72222,-1.44444 -1.44444,-3.40476 -2.52857,-4.57777 -1.62539,0.0905 -2.52857,0.63174 -3.97301,0.99206 -14.29365,4.20952 -28.03175,6.62857 -40.37143,4.06508 -8.66984,-1.26349 -18.48412,-5.05714 -20.65238,-15.44286 -0.14127,-0.56666 -0.19206,-1.06825 -0.26032,-1.5365 l 0.01,-24.92699 0.0698,-1.17301 c -0.0905,-4.33492 2.40794,-7.76667 5.38889,-10.0254 5.05873,-3.6127 10.92857,-4.06508 16.70793,-5.78095 9.75556,-1.6254 19.59842,-3.43175 29.89365,-5.14762 4.96826,-0.99365 9.66349,-3.973016 10.56667,-8.94127 0.0905,-2.979364 0.18095,-8.488888 0.18095,-8.488888 0.36191,-3.071428 -0.63174,-6.503174 -2.89047,-8.941269 -2.61905,-2.619048 -6.68413,-3.431746 -10.11588,-2.619048 -2.71111,0.722222 -4.87777,2.438095 -6.50317,4.606349 -0.27143,1.084127 -1.08413,2.257143 -1.26508,3.522222 -0.18095,1.263492 -0.28254,2.34127 -0.27143,3.522222 -0.0111,1.326984 -0.019,9.211111 -0.019,9.211111 l -38.44444,0.02063 c -0.006,-2.887302 -0.01,-9.231746 -0.01,-9.231746 0.20317,-1.620635 0.27143,-3.703174 0.90317,-5.328571 2.53016,-12.373015 14.99365,-17.068253 25.28889,-19.6873 8.7619,-2.168254 18.78571,-2.439683 28.36031,-2.25873 h 0.0905 z m 4.87778,54.280951 c 0,0 -8.94127,2.52857 -12.73492,3.52222 -3.25079,0.8127 -6.91429,3.16032 -7.54603,7.04444 l -0.0397,19.50794 c -0.18095,3.16032 1.53493,5.68889 3.43175,7.76825 2.98095,2.8 6.86508,3.2508 10.29683,2.25715 2.70952,-1.08413 5.73015,-3.43175 6.63333,-6.8635 l -0.0413,-33.2365 z"
   id="path17" />
</svg>