<svg id="Layer_1" data-name="Layer 1" xmlns="http://www.w3.org/2000/svg" viewBox="0 0 500 292"><defs><style>.cls-1{fill:#ed232b;}.cls-2{fill:#ed222a;}.cls-3{fill:#ed242c;}.cls-4{fill:#02539c;}.cls-5{fill:#03549d;}.cls-6{fill:#01539c;}.cls-7{fill:#03549c;}.cls-8{fill:#01529c;}.cls-9{fill:#f0f5f9;}.cls-10{fill:#ee343b;}.cls-11{fill:#ed2c33;}</style></defs><title>Rema1000</title><path class="cls-1" d="M609,355a3,3,0,0,0,1,.9c10.63,2.11,19.12,12.5,19,24.92-0.1,11.5,0,23,0,34.5,0,16.83.1,33.67,0,50.5-0.1,11.93-7.36,21.27-18.5,24.35a24.89,24.89,0,0,1-27.25-9.9c-0.74-1.06-1.43-2.16-2.42-3.65-5.21,9.23-12.57,14.42-23,14.4s-17.58-5.17-22.93-14.45l-1.69,2.55c-6.6,10-17.57,14.22-28.6,10.91-10.75-3.22-17.69-12.62-17.72-24.4q-0.1-42,0-84c0-13.71,6.21-21.87,19.55-25.93A2,2,0,0,0,507,355h10a1.78,1.78,0,0,0,.54.74c8.26,1.81,13.64,7,17.4,14.34,3.27,6.33,6.69,12.58,10.06,18.86,4.13,7.7,8.27,15.38,12.72,23.66,1.13-1.88,2-3.22,2.77-4.63q10.33-19.28,20.62-38.59c3.51-6.59,8.59-11.29,15.88-13.4a12.67,12.67,0,0,0,2-1h10ZM530.14,455.66l0.87-.19c0.66,1.09,1.37,2.17,2,3.29,2.94,5.41,5.7,10.91,8.8,16.22,7.51,12.86,24.81,12.76,32.24-.18,2.9-5,5.48-10.27,8.26-15.38,0.66-1.22,1.53-2.32,2.76-4.18,0.33,5.58.17,10.26,1,14.78a18,18,0,0,0,18.87,14.45c9.81-.87,17.16-8,17.21-17.46q0.21-44,0-88a17.47,17.47,0,0,0-11.5-16c-9.22-3.46-18.41,0-23.31,9-9.12,16.81-18.08,33.71-27.12,50.56-0.67,1.25-1.48,2.42-2.44,4-0.79-1.38-1.29-2.23-1.76-3.1-9.12-17-18.31-34-27.34-51-5.11-9.63-13.23-11.92-21.69-10.13s-13.53,9.43-13.54,19.18q0,25,0,50c0,11.67-.16,23.34,0,35a18.28,18.28,0,0,0,18.24,18.1,18.48,18.48,0,0,0,18.42-17.95C530.25,463,530.14,459.31,530.14,455.66Z" transform="translate(-251 -355)"/><path class="cls-2" d="M456,355c4.25,2.38,9.18,4,12.62,7.26,13.51,12.7,8.77,34.56-8.58,41.16L455.89,405c8.15,11.43,10.67,20.88,0,36.4,7.08,1.7,12.94,5.2,16.72,11.49,5,8.23,5.19,16.82.68,25.17s-11.87,12.9-21.53,12.95q-27.72.14-55.45,0a24.35,24.35,0,0,1-24.38-24q-0.24-43.71,0-87.42c0-11.48,7.35-20.56,18.54-23.67A7.54,7.54,0,0,0,392,355h64Zm-40.61,43.6c11.55,0,22.53.07,33.51,0a29.45,29.45,0,0,0,8.35-1.11c8.19-2.55,13.65-11.29,12.47-19.39-1.42-9.64-8.48-16.15-17.91-16.19-18-.08-36,0-54,0-11.78,0-19.52,7.26-19.61,19.16q-0.3,42,0,84c0.07,11.8,7.7,19.44,19.44,19.58,17.49,0.2,35,.06,52.48,0a24.3,24.3,0,0,0,3.46-.37c9.83-1.44,16.77-9.54,16.25-18.92-0.57-10.17-8.32-17.41-18.76-17.44s-21,0-31.49,0c-1.42,0-2.84-.19-4.19-0.29V441.6c2.18,0,4.13,0,6.07,0,6.49-.14,13,0.18,19.44-0.58,9.62-1.13,15.88-9.64,15.19-19.61a17.84,17.84,0,0,0-17.46-16.55c-4.5-.09-9,0-13.49,0h-9.78V398.6Z" transform="translate(-251 -355)"/><path class="cls-1" d="M320,355a5.5,5.5,0,0,0,1.52.95c36.07,8,49.41,49.87,24.65,77.31-0.33.37-.65,0.75-1.26,1.47,3.8,5.69,7.8,11.37,11.46,17.25,5.39,8.66,5.63,17.77.51,26.47-9.23,15.67-31.17,16.38-42,1.53-3.63-5-6.91-10.19-10.35-15.3a14.11,14.11,0,0,0-3.53-3.93c0,1.71.05,3.42,0,5.13-0.44,11.89-8.57,21.92-19.52,24.12-12.41,2.5-23.45-3.16-28.63-14.64-0.53-1.16-1.22-2.25-1.84-3.37q0-49.5,0-99c1.31-2.21,2.61-4.44,3.93-6.64,3.69-6.14,9.76-8.92,16.07-11.36h49Zm-25.84,87.06c3.51-.94,4.08,1.5,5.09,3,7,10.31,13.86,20.75,21,31a18.4,18.4,0,0,0,31.1-19.62c-1.38-2.46-3.07-4.74-4.64-7.1-3.48-5.23-7-10.44-10.31-15.46,2.67-2.88,5.29-5.25,7.36-8,9.58-12.86,11.38-26.9,4.49-41.34-7-14.61-19-22.39-35.34-22.63-12.16-.18-24.32-0.07-36.48,0a22,22,0,0,0-6.37.82c-7.72,2.43-12.53,9.08-12.57,17.87-0.11,28.15-.06,56.31,0,84.46a21.49,21.49,0,0,0,1,6.37,18.36,18.36,0,0,0,19.87,12.48,18,18,0,0,0,15.83-17.74C294.25,458.17,294.16,450.19,294.16,442.06Z" transform="translate(-251 -355)"/><path class="cls-3" d="M751,469c-0.58,1.47-1.26,2.92-1.74,4.42-3.19,10-12,17.11-21.94,17.59-11.36.55-20.8-5.18-25.12-15.26-0.52-1.21-1-2.44-1.56-3.88H687.55c-0.62,1.48-1.2,3-1.88,4.48-4.56,9.92-14.29,15.48-25.53,14.62-10-.76-19-8.49-21.58-18.69a25.35,25.35,0,0,1,.78-15.21q15.46-42.59,31-85.16c3.05-8.32,8.84-13.9,17.65-16.06a3.25,3.25,0,0,0,1-.87h10a1.83,1.83,0,0,0,.58.72c9.61,2.21,15.48,8.31,18.63,17.47,2.47,7.2,5.26,14.29,7.84,21.45q12.5,34.67,25,69.36v5Zm-45.59-3.8c1,2.7,1.72,4.91,2.6,7.07,4.09,10.1,14.24,14.68,24.06,10.9,9.43-3.63,14-13.84,10.44-23.84q-15.39-42.67-31-85.24c-3-8-9-12.18-17-12.24-8.37-.06-14.69,4-17.66,12.08Q661,416.73,645.59,459.66c-3.59,10,1.26,20.11,10.86,23.64s19.58-1.1,23.62-11c1-2.42,1.92-4.87,2.81-7.13h22.52Z" transform="translate(-251 -355)"/><path class="cls-3" d="M635,647a24.45,24.45,0,0,0-3.82-1.84,46.49,46.49,0,0,1-34-44.71c0-14.48-.09-29,0-43.45,0.17-24.22,19.49-44.47,44.56-45.69,24.3-1.18,44.13,16,48.1,39.14a29.85,29.85,0,0,1,.35,5c0,15.65.17,31.3,0,46.95-0.25,20.66-15.7,38.87-36.62,43.58a15.4,15.4,0,0,0-2.51,1H635Zm-31.15-68.08H604c0,8.16-.35,16.34.07,24.48,1.21,23.46,24.37,41,47.35,36.11,19.41-4.13,32.23-19.85,32.42-40q0.19-20.49,0-41a45.35,45.35,0,0,0-1.46-10.84,39.86,39.86,0,0,0-78.43,9.24C603.7,564.26,603.85,571.59,603.85,578.92Z" transform="translate(-251 -355)"/><path class="cls-1" d="M531,647a34.57,34.57,0,0,0-4.31-1.91c-19.14-5.61-32.92-22.69-33.47-42.57-0.44-15.8-.49-31.64,0-47.43,0.75-23.34,19.38-42,43.84-43.7A46.08,46.08,0,0,1,584.91,547a53.11,53.11,0,0,1,1.21,11.36c0.14,13.48-.28,27,0.13,40.46,0.75,24.45-17.68,44.27-38.26,47.27a2.78,2.78,0,0,0-1,.91H531Zm-31.16-68.27c0,7.33,0,14.66,0,22a39.45,39.45,0,0,0,39.35,39.43c22.12,0.2,40.05-17,40.35-39,0.2-14.82.25-29.65,0-44.48-0.39-22-18.27-38.85-40.62-38.71a39.58,39.58,0,0,0-39.07,39.25C499.8,564.41,499.84,571.57,499.84,578.73Z" transform="translate(-251 -355)"/><path class="cls-1" d="M427,647a35.86,35.86,0,0,0-4.32-1.89A46.51,46.51,0,0,1,389,600.6q-0.15-21.48,0-43c0.18-24.93,19-44.88,44.42-46.31,23-1.29,44.08,14.64,48.29,39.49a24.1,24.1,0,0,1,.29,4c0,15.81.34,31.64,0,47.44a46.06,46.06,0,0,1-36.48,43.68A13.67,13.67,0,0,0,443,647H427Zm-31.16-68.08c0,7.5,0,15,0,22.49a34.44,34.44,0,0,0,.59,6.94c4.52,20.81,22.82,34.07,44.34,31.52,19.93-2.36,34.73-19.21,34.79-39.88,0-13.83.13-27.66-.07-41.49a48.86,48.86,0,0,0-1.63-11.81c-5-18.7-24.28-31.16-43.75-28.5s-34.21,19.34-34.3,38.73C395.81,564.26,395.84,571.59,395.84,578.92Z" transform="translate(-251 -355)"/><path class="cls-2" d="M344,647a25,25,0,0,0-2.81-1.8c-10.12-4.75-14.92-13-15-23.88-0.15-18.65,0-37.31,0-56v-5.69c-0.73-.45-1.4-0.87-2.09-1.28-10.07-6-14.9-16.21-12.75-27a24.2,24.2,0,0,1,21.64-19.79,99.1,99.1,0,0,1,23.36.41c11.53,1.57,19.79,11.81,19.83,23.47q0.14,43.72,0,87.44c0,10.78-5.7,18.08-15.29,22.55-1,.45-1.89,1-2.83,1.51H344Zm-11-92.25c0,2,0,3.82,0,5.64,0,20.82-.08,41.63,0,62.45a18,18,0,0,0,22.2,17.42c8.91-2,14.38-9,14.6-18.89,0.11-4.83,0-9.66,0-14.49,0-23,0-46,0-68.94,0-12.36-7.66-19.92-19.9-19.94-5,0-10-.11-15,0a17.94,17.94,0,0,0-17.09,15.33C316.4,543.61,321.52,551.08,333,554.75Z" transform="translate(-251 -355)"/><path class="cls-4" d="M557.83,440.6c1.08-1.86,1.93-3.22,2.69-4.63q15.9-29.67,31.77-59.36c1.84-3.44,3.94-6.5,8-7.74a11.48,11.48,0,0,1,14.82,8,21.24,21.24,0,0,1,.68,5.41q0.06,40.74,0,81.48c0,7.06-2.57,11.33-7.72,13.24-8.06,3-15.89-2.54-16-11.61-0.18-10.16,0-20.33,0-30.49q0-3,0-6l-0.62-.28c-1.79,3.24-3.61,6.46-5.36,9.71-5.67,10.54-11.4,21-16.91,31.67-2.44,4.7-5.84,7.67-11.24,7.74s-8.87-3.08-11.31-7.67q-9.7-18.28-19.5-36.51c-0.84-1.57-1.77-3.1-3.21-5.62-0.23,2.31-.45,3.54-0.45,4.77,0,11.16.11,22.33-.06,33.49-0.13,8.6-8.34,14-16.1,10.62-4.88-2.12-7.27-6.08-7.26-11.48,0-11.66,0-23.33,0-35,0-16.5,0-33,0-49.49,0-5.79,2.76-10,7.48-11.83,5.9-2.27,11.79.05,15.09,6.15,6.87,12.72,13.65,25.5,20.48,38.24q6.36,11.87,12.76,23.72C556.36,438.17,557,439.11,557.83,440.6Z" transform="translate(-251 -355)"/><path class="cls-5" d="M408.68,391.83v19c1.37,0.11,2.64.31,3.91,0.31,8.17,0,16.33-.09,24.5,0,7.29,0.12,12,4.51,12.32,11.06,0.33,7.38-4.29,12.43-11.74,12.54-7.83.12-15.67,0-23.5,0h-5.36v19.33h9.47c10.83,0,21.67,0,32.5,0,5.32,0,9.35,2.35,11.38,7.38a11.73,11.73,0,0,1-10.64,16.25c-18.33,0-36.67.12-55,0-6.8-.06-11.47-5-11.49-11.91q-0.1-42.75,0-85.49c0-7.25,4.85-12,12.39-12.16,8-.17,16,0,24,0,9.67,0,19.33-.09,29,0,7.38,0.09,12.43,4.81,12.57,11.41,0.16,7.21-4.63,12.15-12.13,12.2-11.83.09-23.67,0-35.5,0h-6.68Z" transform="translate(-251 -355)"/><path class="cls-4" d="M287.83,434.83c0,9.46,0,18.42,0,27.37a27.7,27.7,0,0,1-.56,5.93c-1.37,6-5.71,9.21-11.95,9a11.27,11.27,0,0,1-11-9.64,29,29,0,0,1-.24-5q0-39.73,0-79.46c0-10.58,4.29-14.88,14.82-14.89,11,0,22-.09,33,0,15.5,0.16,28.33,9.81,32.37,24.16A33.19,33.19,0,0,1,330,429.74c-1,.61-1.93,1.18-3.13,1.91,6,8.91,11.75,17.63,17.64,26.29,2.39,3.52,3.42,7.26,2.07,11.33a10.71,10.71,0,0,1-8.44,7.68c-4.71.87-9-.07-12-4.2-2.74-3.77-5.33-7.64-7.92-11.51-5.1-7.59-10.25-15.16-15.19-22.86-1.71-2.66-3.59-4-6.87-3.62A70.87,70.87,0,0,1,287.83,434.83ZM288,411.15c8.53,0,16.5.12,24.47,0A9.59,9.59,0,0,0,322,402c0.26-4.67-3.29-9.65-8-9.87-8.56-.41-17.16-0.11-25.9-0.11v19.11Z" transform="translate(-251 -355)"/><path class="cls-4" d="M709.89,458.32c-1-.07-1.87-0.17-2.69-0.17H678.35c-1.41,3.71-2.79,7.39-4.21,11.06-2.73,7.11-8.81,10.22-15.36,7.88s-9.33-8.77-6.73-15.93Q667.28,419,682.72,377c2.09-5.72,6.21-8.8,11.39-8.8s9.36,3.21,11.43,8.87q12.31,33.68,24.51,67.4c2.1,5.78,4.3,11.52,6.28,17.34,1.7,5,.81,9.61-3.28,13.15a11.28,11.28,0,0,1-12.59,1.83,11.74,11.74,0,0,1-6.42-7.26C712.7,465.77,711.28,462.06,709.89,458.32Zm-15.27-42.25h-1.1l-6.69,18.45h14.48Z" transform="translate(-251 -355)"/><path class="cls-6" d="M610.61,578.5c0-7-.05-14,0-21a33.18,33.18,0,0,1,66.36.2c0,14.15-.25,28.3.08,42.43,0.35,15-11.31,33.35-33.13,33.44a32.64,32.64,0,0,1-33.36-33.14C610.79,593.15,610.61,585.82,610.61,578.5Zm43,0.51q0-3.49,0-7c0-4.65.22-9.32-.06-14-0.46-7.72-7.63-12.2-14.06-8.9a9.68,9.68,0,0,0-5.52,9.3c0,10.13,0,20.27,0,30.4,0,4-.17,8,0.06,12a9.7,9.7,0,0,0,19.26,1.07,24.42,24.42,0,0,0,.29-4.46C653.63,591.3,653.61,585.15,653.61,579Z" transform="translate(-251 -355)"/><path class="cls-4" d="M573,579.3c0,7.16.07,14.32,0,21.47a33.31,33.31,0,0,1-65.52,8,42.6,42.6,0,0,1-1.23-10.37q-0.21-19.47,0-39c0.15-17,9.94-29.9,25.51-33.88,20.35-5.2,40.86,10.29,41.26,31.27C573.11,564.31,573,571.81,573,579.3Zm-43-.65c0,7.31-.12,14.62,0,21.93a9.62,9.62,0,0,0,19.08,1.58,27.33,27.33,0,0,0,.48-5.43c0-8.81,0-17.61,0-26.42,0-4.15.21-8.33-.13-12.45-0.5-6.05-5.12-10.13-10.48-9.7s-9,4.55-9,10.56C529.95,565.36,530,572,530,578.65Z" transform="translate(-251 -355)"/><path class="cls-7" d="M469,578.84c0,6.83,0,13.65,0,20.48a33.36,33.36,0,0,1-66,7.93,49.36,49.36,0,0,1-.84-9.41q-0.13-19.73,0-39.46c0.1-15.21,9.61-28.18,23.55-32.36a33.32,33.32,0,0,1,43.13,30.36c0.35,7.47.06,15,.06,22.47H469Zm-23.83.11c0-6.82.05-13.65,0-20.47-0.06-6.19-4.06-10.38-9.7-10.32-5.27.05-9.5,4.28-9.56,10.1q-0.2,20.72,0,41.44c0.06,6.2,4.24,10.36,9.82,10.3s9.39-4.22,9.44-10.57C445.2,592.6,445.16,585.78,445.16,579Z" transform="translate(-251 -355)"/><path class="cls-8" d="M339.61,548.35c-2.13-.15-3.62-0.19-5.1-0.37a11.62,11.62,0,0,1-10.33-11.54c-0.12-6,4.09-11.16,10.15-11.58a136.44,136.44,0,0,1,18.47,0c6.28,0.43,10.16,5.29,10.17,12q0.05,36.25,0,72.5c0,4.17,0,8.33,0,12.5-0.11,7.3-4.81,12.13-11.72,12.12-6.7,0-11.5-4.64-11.59-11.72-0.16-13.16,0-26.33,0-39.5C339.61,571.45,339.61,560.14,339.61,548.35Z" transform="translate(-251 -355)"/><path class="cls-9" d="M694.62,416.07l6.69,18.45H686.83l6.69-18.45h1.1Z" transform="translate(-251 -355)"/><path class="cls-10" d="M294.33,404.85v-6.42c6,0,11.9-.09,17.82.06,1.79,0,3.47,1.3,2.88,3.23-0.38,1.25-2,2.94-3.17,3C306.1,405,300.31,404.85,294.33,404.85Z" transform="translate(-251 -355)"/><path class="cls-11" d="M647,579q0,9,0,17.94c0,1,.31,2.18-0.11,2.95-0.71,1.3-1.72,3-2.91,3.35-2.15.54-3.17-1.29-3.48-3.28a19.66,19.66,0,0,1-.14-3q0-17.94,0-35.88c0-4.33,1.07-6.18,3.36-6.2S647,556.59,647,561C647,567,647,573,647,579Z" transform="translate(-251 -355)"/><path class="cls-10" d="M542.9,579.28c0,6.48,0,13,0,19.45,0,2.36-.4,4.69-3.24,4.61-2.67-.08-3.33-2.33-3.33-4.71q0-19.45,0-38.91a8.46,8.46,0,0,1,0-1c0.26-2.16,1-4,3.6-3.81,2.27,0.19,2.93,1.87,2.93,3.91q0,6.48,0,13Q542.9,575.54,542.9,579.28Z" transform="translate(-251 -355)"/><path class="cls-10" d="M438.9,579.5c0,6,0,12,0,18,0,1.16.29,2.59-.27,3.41a5.38,5.38,0,0,1-3.35,2.29c-0.84.08-2.15-1.32-2.68-2.35s-0.26-2.27-.26-3.43q0-18.21,0-36.41c0-4.53.93-6.15,3.34-6.11s3.22,1.62,3.23,6.2C438.92,567.19,438.9,573.35,438.9,579.5Z" transform="translate(-251 -355)"/></svg>