<svg id="Layer_1" data-name="Layer 1" xmlns="http://www.w3.org/2000/svg" viewBox="0 0 39.79 52.1"><defs><style>.cls-1{fill:#c51c38;}</style></defs><title>soy4you_responsive_logo</title><path class="cls-1" d="M134,6.36c0,4.1-2.11,7.66-3,11.55-2.18,9.43-4.57,18.81-6.92,28.19a13.64,13.64,0,0,1-1.37,3.7c-0.75,1.24-1.84,2.83-3.48,2.17s-0.5-2.37-.45-3.58a34.4,34.4,0,0,1,.68-4.44c1.32-7.53.34-9.08-7-11-4.07-1-8.09-1.67-12.27-.25a4.45,4.45,0,0,1-5.62-1.95c-1.13-2.11.79-3.32,1.94-4.66,4.87-5.7,9.71-11.42,14.69-17,0.94-1.06,1.7-3.64,3.7-2.17s1.18,3.54-.15,5.31c-2.7,3.59-5.22,7.34-8.11,10.77-2.07,2.45-1.48,3.28,1.26,4.42,13.2,5.48,16.86,4.63,18.7-11.41,0.43-3.79.74-7.59,1.08-11.39,0.17-2,.14-4.56,2.52-4.64,2.71-.09,3.67,2.33,3.79,4.86A14.35,14.35,0,0,1,134,6.36Z" transform="translate(-94.19 -0.03)"/></svg>