<svg id="Layer_1" data-name="Layer 1" xmlns="http://www.w3.org/2000/svg" viewBox="0 0 229.8 52.67"><defs><style>.cls-1{fill:#7ea639;}.cls-2{fill:#c51c38;}</style></defs><title>soy4you</title><path class="cls-1" d="M2.25,28.25C5.6,28,6.51,31,8.19,32.91c3.4,3.84,15.53,1.65,17.29-3.2,0.85-2.35-1-2.91-2.54-3.39-3.49-1.09-7.05-2-10.55-3C11.33,23,10,22.62,9.88,21.23c-0.07-1.13,1.1-1.58,1.93-2.05,6-3.4,12.68-5,19.21-6.91,0.92-.27,2.14-0.41,2.57.74a2.07,2.07,0,0,1-1.31,2.43,31,31,0,0,1-4.58,1.84c-3.1,1-6.54,1.14-9.58,3.43,3.22,1.23,6.19,2.14,9,3.47,3,1.44,4.1,3.82,2.3,7-3.1,5.45-14.57,9.3-20.38,7-3.33-1.32-4.87-4.23-6.75-6.9C1.45,30.19,1,28.38,2.25,28.25Z" transform="translate(-1.47 -2.2)"/><path class="cls-2" d="M135.43,8.56c0,4.1-2.11,7.66-3,11.55-2.18,9.43-4.57,18.81-6.92,28.19A13.64,13.64,0,0,1,124.14,52c-0.75,1.24-1.84,2.83-3.48,2.17s-0.5-2.37-.45-3.58a34.4,34.4,0,0,1,.68-4.44c1.32-7.53.34-9.08-7-10.95-4.07-1-8.09-1.67-12.27-.25A4.45,4.45,0,0,1,96,33c-1.13-2.11.79-3.32,1.94-4.66,4.87-5.7,9.71-11.42,14.69-17,0.94-1.06,1.7-3.64,3.7-2.17s1.18,3.54-.15,5.31c-2.7,3.59-5.22,7.34-8.11,10.77-2.07,2.45-1.48,3.28,1.26,4.42,13.2,5.48,16.86,4.63,18.7-11.41,0.43-3.79.74-7.59,1.08-11.39,0.17-2,.14-4.56,2.52-4.64,2.71-.09,3.67,2.33,3.79,4.86C135.46,7.56,135.44,8.06,135.43,8.56Z" transform="translate(-1.47 -2.2)"/><path class="cls-1" d="M202.14,34.08c7.48-1.19,14.16-3.62,18.82-9.87,1.88-2.53,3.67-5.14,5.62-7.62,0.92-1.16,2.15-2.44,3.77-1.18s0.88,2.8,0,4c-1.83,2.57-3.83,5-5.78,7.49C220,32.73,220,33,226,36.05c-5.2,3-6.35,2.87-9.15-1.84-1.2-2-2.08-.83-3.12-0.26-3.81,2.07-7.68,4-12.13,4.15-2,.07-4.17-0.05-5.34-2s0.35-3.52,1.32-5a79.38,79.38,0,0,1,11.79-13.47c1-1,2.42-2.55,3.85-1.39,1.86,1.51,0,3-.89,4.24C209.09,25.11,204.61,28.71,202.14,34.08Z" transform="translate(-1.47 -2.2)"/><path class="cls-1" d="M71.73,27.12c0,1,0,2,0,3,0.1,2.1.67,4,2.83,4.85,2.41,1,3.82-.69,5-2.32,2.46-3.55,4.73-7.23,7.09-10.85,1.18-1.81,2.32-3.65,3.61-5.38,0.63-.84,1.23-2.35,2.67-1.5a2.86,2.86,0,0,1,1.18,3.52c-0.8,2.44-2.66,4.18-4.15,6.17-2.76,3.66-6.51,6.6-7.37,11.61-0.41,2.39-3.73,2.47-5,4.46-2.66,4-5.42,8-8.12,12-0.93,1.37-1.65,3.11-3.82,1.72-2.45-1.57-.47-2.9.37-4,2.16-2.95,4.52-5.75,6.78-8.63,1.31-1.68,2.79-3.36-1-3.94-2.48-.39-3.44-2.38-4-4.58a28.82,28.82,0,0,1-.32-10.91c0.14-1.19-.22-3,1.62-3.14s2.48,1.53,2.71,3A22.62,22.62,0,0,1,71.73,27.12Z" transform="translate(-1.47 -2.2)"/><path class="cls-1" d="M145.28,26.91c0,1.33-.09,2.67,0,4A4.42,4.42,0,0,0,148.4,35c2.21,0.75,3.52-.7,4.55-2.22,3.34-5,6.48-10.09,9.89-15,0.85-1.23,1.52-4,3.83-2.48s1,3.65-.2,5.3c-7.93,11.05-16.72,21.48-24.16,32.89-0.89,1.36-1.89,1.73-3.31.76-1.7-1.17-.75-2.34,0-3.38,2.42-3.18,5-6.25,7.36-9.46,0.74-1,2.63-2.7-.13-3.36-5.5-1.31-5.33-5.72-5.73-9.81a16.89,16.89,0,0,1,.28-5.46c0.32-1.36-.56-4,2.05-3.74,1.91,0.15,2.36,2.14,2.48,3.86A33.43,33.43,0,0,1,145.28,26.91Z" transform="translate(-1.47 -2.2)"/><path class="cls-1" d="M45.06,37.92a24.73,24.73,0,0,1-8.31-1.42C32.23,34.63,31,30.34,34.57,27c5.74-5.43,12.64-8.63,20.77-7.83,4.32,0.43,7.54,2.67,8.26,7.31,0.68,4.39-2.06,6.79-5.52,8.5A31.86,31.86,0,0,1,45.06,37.92Zm0.23-3.47a25.37,25.37,0,0,0,11.42-2.95c1.8-1,3.52-2.36,3.07-4.62s-2.42-3.09-4.45-3.46c-4.86-.89-9.16.83-13.2,3.25-1.93,1.16-5,2.48-4.5,4.71,0.64,2.75,4,2.89,6.66,3.08C44.63,34.48,45,34.46,45.29,34.45Z" transform="translate(-1.47 -2.2)"/><path class="cls-1" d="M175.63,38c-1-.14-2.49-0.3-4-0.55-3.15-.53-6.47-1-7.43-4.76-1-3.93,1.57-6.26,4.44-8.11,5.22-3.37,10.74-6,17.22-5.48,4.6,0.37,8,2.49,9,7.2s-2.08,7.08-5.7,8.85C185.07,37.11,180.63,37.74,175.63,38Zm1.22-3.51a24.46,24.46,0,0,0,11.37-3.06c1.65-.94,3.08-2.22,2.77-4.3-0.34-2.26-2.16-3.27-4.2-3.65-4.45-.81-8.54.46-12.33,2.69-2.36,1.38-6.25,2.86-5.48,5.51S173.77,34.58,176.85,34.44Z" transform="translate(-1.47 -2.2)"/></svg>