<svg id="Layer_1" data-name="Layer 1" xmlns="http://www.w3.org/2000/svg" viewBox="0 0 118.02 52.1"><defs><style>.cls-1{fill:#7ea639;}.cls-2{fill:#c51c38;}</style></defs><title>soy4you_responsive_logo_2</title><path class="cls-1" d="M57.89,29.11c3.35-.25,4.26,2.75,5.94,4.66,3.4,3.84,15.53,1.65,17.29-3.2,0.85-2.35-1-2.91-2.54-3.39-3.49-1.09-7.05-2-10.55-3-1.06-.32-2.39-0.7-2.51-2.09-0.07-1.13,1.1-1.58,1.93-2,6-3.4,12.68-5,19.21-6.91,0.92-.27,2.14-0.41,2.57.74a2.07,2.07,0,0,1-1.31,2.43,31,31,0,0,1-4.58,1.84c-3.1,1-6.54,1.14-9.58,3.43,3.22,1.23,6.19,2.14,9,3.47,3,1.44,4.1,3.82,2.3,7-3.1,5.45-14.57,9.3-20.38,7-3.33-1.32-4.87-4.23-6.75-6.9C57.09,31.05,56.64,29.24,57.89,29.11Z" transform="translate(-57.11 -0.03)"/><path class="cls-2" d="M134,6.36c0,4.1-2.11,7.66-3,11.55-2.18,9.43-4.57,18.81-6.92,28.19a13.64,13.64,0,0,1-1.37,3.7c-0.75,1.24-1.84,2.83-3.48,2.17s-0.5-2.37-.45-3.58a34.4,34.4,0,0,1,.68-4.44c1.32-7.53.34-9.08-7-11-4.07-1-8.09-1.67-12.27-.25a4.45,4.45,0,0,1-5.62-1.95c-1.13-2.11.79-3.32,1.94-4.66,4.87-5.7,9.71-11.42,14.69-17,0.94-1.06,1.7-3.64,3.7-2.17s1.18,3.54-.15,5.31c-2.7,3.59-5.22,7.34-8.11,10.77-2.07,2.45-1.48,3.28,1.26,4.42,13.2,5.48,16.86,4.63,18.7-11.41,0.43-3.79.74-7.59,1.08-11.39,0.17-2,.14-4.56,2.52-4.64,2.71-.09,3.67,2.33,3.79,4.86A14.35,14.35,0,0,1,134,6.36Z" transform="translate(-57.11 -0.03)"/><path class="cls-1" d="M146,35.09c7.48-1.19,14.16-3.62,18.82-9.87,1.88-2.53,3.67-5.14,5.62-7.62,0.92-1.16,2.15-2.44,3.77-1.18s0.88,2.8,0,4c-1.83,2.57-3.83,5-5.78,7.49-4.57,5.83-4.57,6.1,1.43,9.15-5.2,3-6.35,2.87-9.15-1.84-1.2-2-2.08-.83-3.12-0.26-3.81,2.07-7.68,4-12.13,4.15-2,.07-4.17,0-5.34-2s0.35-3.52,1.32-5a79.38,79.38,0,0,1,11.79-13.47c1-1,2.42-2.55,3.85-1.39,1.86,1.51,0,3-.89,4.24C152.91,26.12,148.43,29.72,146,35.09Z" transform="translate(-57.11 -0.03)"/></svg>