<svg xmlns="http://www.w3.org/2000/svg" viewBox="0 0 367.47 358.69"><defs><style>.cls-1{isolation:isolate;}.cls-2{opacity:0.5;mix-blend-mode:overlay;}.cls-3{fill:#2d2d2d;}.cls-4{fill:#676767;}.cls-5{fill:#ececec;}.cls-6{fill:#565754;}.cls-7{fill:#c5c5c5;}.cls-8{fill:#535552;}.cls-9{fill:#202d50;}</style></defs><title>Spacestation</title><g class="cls-1"><g id="Objects"><g class="cls-2"><path class="cls-3" d="M644.84,599.2l-6.31-6.8,12.88-12-16.48-17.76-2.05,1.9c-0.38-.48-0.78-0.95-1.2-1.4a26,26,0,0,0-19.94-8.33l-0.1.09L599.89,542.3l23-21.3,25.7,27.7,115-106.75L702,375.55l-115,106.75,31.17,33.59-23,21.3-25.76-27.76-3.33,3.09L557.19,503c16-20.18,19.17-44.81,6.21-58.77l-0.15-.15L556,450.79l-57.33-2.25a8.47,8.47,0,1,0-10.93,8.15l-0.51,57.91-7,6.51,0.14,0.16c13,14,37.76,12.65,59.07-1.81L548.3,529l8.09-7.51L545,532.1l25.76,27.75L547.19,581.7l4.74,5.11L575.47,565l11.74,12.65-0.1.09a26,26,0,0,0,6.82,20.51c0.42,0.46.86,0.88,1.31,1.3l-2.05,1.9,16.49,17.76,12.88-12,6.31,6.8A27,27,0,1,0,644.84,599.2ZM552.53,454L522,482.37l-25.79-27.78a8.43,8.43,0,0,0,1.84-2.73Zm-61.92,57.47L491.09,457a8.43,8.43,0,0,0,2-.44l26.24,28.27Z" transform="translate(-400.34 -371.31)"/><path class="cls-3" d="M656.71,654.49h0a30,30,0,0,1-31.33-39.8l-3-3.22-12.88,12-20.57-22.16,2-1.87A29,29,0,0,1,584,578.6l-8.72-9.39L551.77,591l-8.82-9.5,23.54-21.84-25.76-27.75,3.33-3.09-5.11-5.5a67.14,67.14,0,0,1-28.73,10.43c-13.16,1.35-24.55-2.37-32.07-10.47L476.08,521l2.09-2.07,6.06-5.63,0.48-54.62a11.48,11.48,0,1,1,16.56-13l53.58,2.1,8.57-8,2.18,2.36c13.44,14.48,11.51,39.13-4.49,60.63l5.1,5.5,3.33-3.09L595.31,533l18.56-17.22L582.7,482.14,702.12,371.31l65.7,70.79L648.39,552.93l-25.7-27.7-18.56,17.22,8.72,9.39a29,29,0,0,1,20.23,8.47l2-1.87,20.57,22.16-12.88,12,3,3.22a30,30,0,0,1,4.79-.89A30,30,0,0,1,656.71,654.49Zm-34-51.5,9.68,10.43-0.77,1.79a24,24,0,0,0,24.48,33.31h0A24,24,0,1,0,645.82,602l-1.85.63-9.68-10.42,12.88-12-12.4-13.37L632.56,569l-2-2.5c-0.34-.42-0.69-0.84-1.07-1.25a23,23,0,0,0-16.56-7.38l-1.45,1.34-15.82-17L623,516.75l25.7,27.7L759.33,441.79l-57.53-62L591.18,482.45,622.35,516,595,541.43l-25.76-27.76-3.33,3.09-12.66-13.64,1.6-2c14.46-18.22,17.64-39.84,8.14-52.72l-78.42,72.77c6.21,5.35,15,7.69,25,6.65,9.37-1,19.09-4.71,28.13-10.84l2.13-1.45,8.58,9.25,5.89-5.46,4.08,4.4-9.22,8.56L575,560l-23.54,21.84,0.66,0.71,23.54-21.84,15.83,17.05L590,579.12a23.05,23.05,0,0,0,6.12,17.06c0.38,0.4.77,0.78,1.16,1.16l2.35,2.2-2.21,2.05L609.83,615ZM494,462.05l-0.38,42.48,21.38-19.84Zm6.56-7.09,21.51,23.17,23.08-21.42Zm-11-11.81a5.47,5.47,0,0,0-1,10.68l1.06,0.32,1.11-.12a5.48,5.48,0,0,0,1.26-.28l1.13-.41,0.89-.88a5.38,5.38,0,0,0,1.19-1.76l0.42-1v-1.12A5.46,5.46,0,0,0,489.63,443.15Z" transform="translate(-400.34 -371.31)"/><rect class="cls-3" x="414.44" y="593.9" width="156.92" height="90.58" transform="translate(-703.54 134.65) rotate(-42.86)"/><path class="cls-3" d="M466,730l-65.7-70.79L519.76,548.38l65.7,70.79Zm-57.22-70.47,57.54,62L577,618.86l-57.54-62Z" transform="translate(-400.34 -371.31)"/></g><rect class="cls-4" x="623.86" y="598.16" width="21.81" height="12.42" transform="translate(-641.97 221.88) rotate(-42.86)"/><circle class="cls-5" cx="653.62" cy="624.69" r="26.96" transform="translate(-650.75 240.12) rotate(-42.86)"/><rect class="cls-6" x="536.58" y="547.7" width="97.24" height="6.97" transform="translate(-619.02 173.93) rotate(-42.86)"/><path class="cls-5" d="M611.73,554.86l-24.62,22.85A25.75,25.75,0,1,0,611.73,554.86Z" transform="translate(-400.34 -371.31)"/><rect class="cls-7" x="561.64" y="512.48" width="33.32" height="62.1" transform="translate(-615.66 167.24) rotate(-42.86)"/><rect class="cls-7" x="593.82" y="578.82" width="56.95" height="24.23" transform="translate(-636.16 209.78) rotate(-42.86)"/><rect class="cls-6" x="538.68" y="504.5" width="24.23" height="18.78" transform="translate(-602.84 140.54) rotate(-42.86)"/><polygon class="cls-8" points="165.08 79.85 87.47 76.81 86.8 152.53 90.16 152.56 90.78 83.17 124.1 119.08 126.77 116.61 93.13 80.36 164.96 83.19 165.08 79.85"/><path class="cls-7" d="M480.22,521.11l0.14,0.16c14.94,16.1,45.65,11.9,68.58-9.38s29.41-51.59,14.47-67.69l-0.15-.15Z" transform="translate(-400.34 -371.31)"/><circle class="cls-7" cx="490.2" cy="448.59" r="8.47" transform="translate(-574.6 82.02) rotate(-42.87)"/><rect class="cls-7" x="414.44" y="593.9" width="156.92" height="90.58" transform="translate(-703.54 134.65) rotate(-42.86)"/><rect class="cls-9" x="423.25" y="646.63" width="23.51" height="35.59" transform="translate(-736.48 103.3) rotate(-42.96)"/><rect class="cls-9" x="445.11" y="626.33" width="23.52" height="35.59" transform="translate(-716.8 112.83) rotate(-42.96)"/><rect class="cls-9" x="466.98" y="606.04" width="23.52" height="35.59" transform="translate(-697.09 122.22) rotate(-42.96)"/><rect class="cls-9" x="488.85" y="585.74" width="23.52" height="35.59" transform="translate(-677.4 131.75) rotate(-42.96)"/><rect class="cls-9" x="510.72" y="565.45" width="23.51" height="35.59" transform="translate(-657.7 141.19) rotate(-42.96)"/><rect class="cls-9" x="451.7" y="677.29" width="23.52" height="35.59" transform="translate(-749.75 130.94) rotate(-42.96)"/><rect class="cls-9" x="473.57" y="656.99" width="23.51" height="35.59" transform="translate(-730.05 140.39) rotate(-42.96)"/><rect class="cls-9" x="495.44" y="636.7" width="23.51" height="35.59" transform="translate(-710.36 149.88) rotate(-42.96)"/><rect class="cls-9" x="517.31" y="616.4" width="23.51" height="35.59" transform="translate(-690.66 159.32) rotate(-42.96)"/><rect class="cls-9" x="539.17" y="596.11" width="23.52" height="35.59" transform="translate(-670.97 168.78) rotate(-42.96)"/><rect class="cls-7" x="596.79" y="416.83" width="156.92" height="90.58" transform="translate(-534.39 211.42) rotate(-42.86)"/><rect class="cls-9" x="605.6" y="469.55" width="23.51" height="35.59" transform="translate(-566.91 180.04) rotate(-42.96)"/><rect class="cls-9" x="627.47" y="449.26" width="23.51" height="35.59" transform="translate(-547.21 189.59) rotate(-42.96)"/><rect class="cls-9" x="649.34" y="428.97" width="23.52" height="35.59" transform="translate(-527.51 199.03) rotate(-42.96)"/><rect class="cls-9" x="671.21" y="408.67" width="23.51" height="35.59" transform="translate(-507.82 208.52) rotate(-42.96)"/><rect class="cls-9" x="693.08" y="388.38" width="23.51" height="35.59" transform="translate(-488.12 217.95) rotate(-42.96)"/><rect class="cls-9" x="634.06" y="500.21" width="23.52" height="35.59" transform="translate(-580.17 207.72) rotate(-42.96)"/><rect class="cls-9" x="655.93" y="479.92" width="23.51" height="35.59" transform="translate(-560.47 217.26) rotate(-42.97)"/><rect class="cls-9" x="677.79" y="459.63" width="23.51" height="35.59" transform="translate(-540.78 226.65) rotate(-42.96)"/><rect class="cls-9" x="699.66" y="439.33" width="23.51" height="35.59" transform="translate(-521.08 236.1) rotate(-42.96)"/><rect class="cls-9" x="721.53" y="419.04" width="23.52" height="35.59" transform="translate(-501.38 245.59) rotate(-42.96)"/></g></g></svg>