<svg xmlns="http://www.w3.org/2000/svg" viewBox="0 0 313.08 297.82"><defs><style>.cls-1{isolation:isolate;}.cls-2{fill:#ffb300;}.cls-3{fill:#ffd54f;}.cls-4{fill:#fafafa;}.cls-5{fill:#fdd835;}.cls-6{fill:#fff;opacity:0.4;mix-blend-mode:overlay;}</style></defs><title>sun</title><g class="cls-1"><g id="objects"><polygon class="cls-2" points="313.08 148.91 207.41 165.45 283.16 240.96 187.93 192.19 204.91 297.81 156.54 202.37 108.17 297.81 125.15 192.19 29.91 240.96 105.67 165.45 0 148.91 105.67 132.37 29.91 56.86 125.15 105.63 108.17 0 156.54 95.45 204.91 0 187.93 105.63 283.17 56.86 207.41 132.37 313.08 148.91"/><polygon class="cls-3" points="287.31 191.1 194.58 176.44 237.51 259.94 171.1 193.53 156.81 286.35 142.13 193.57 75.99 260.27 118.65 176.6 25.94 191.68 109.58 149.01 25.76 106.71 118.5 121.38 75.56 37.88 141.98 104.29 156.26 11.47 170.95 104.25 237.09 37.55 194.43 121.21 287.13 106.14 203.49 148.8 287.31 191.1"/><circle class="cls-4" cx="156.54" cy="148.91" r="77.64"/><circle class="cls-5" cx="592.5" cy="192.5" r="71.34" transform="translate(-398.54 431.75) rotate(-45)"/><path class="cls-6" d="M542.05,142.05A71.34,71.34,0,1,1,642.95,242.95" transform="translate(-435.96 -43.59)"/></g></g></svg>