<svg id="Objects" xmlns="http://www.w3.org/2000/svg" viewBox="0 0 648.35 199.76"><defs><style>.cls-1{fill:#d6e5e5;}.cls-2{fill:#222223;}.cls-3{fill:#acb3b7;}.cls-4{fill:#6b6f72;}.cls-5{fill:#31383d;}.cls-6{fill:#a72029;}.cls-7{fill:#c44955;}.cls-8{fill:#fcebcd;}.cls-9{fill:#3f3f41;}.cls-10{fill:#d6d6d6;}.cls-11{fill:#4e4f51;}.cls-12{fill:#7c0e19;}.cls-13{fill:#3e934e;}</style></defs><title>Tractor</title><g id="_Group_" data-name="&lt;Group&gt;"><g id="_Group_2" data-name="&lt;Group&gt;"><g id="_Group_3" data-name="&lt;Group&gt;"><g id="_Group_4" data-name="&lt;Group&gt;"><g id="_Group_5" data-name="&lt;Group&gt;"><path id="_Path_" data-name="&lt;Path&gt;" class="cls-1" d="M212.19,548.93a10.9,10.9,0,0,0-5.73-9.6,15.71,15.71,0,1,0-27-4.41,14,14,0,1,0,5.83,27.39,8.91,8.91,0,1,0,17.46-2.59A10.9,10.9,0,0,0,212.19,548.93Z" transform="translate(-122.92 -513.84)"/><g id="_Group_6" data-name="&lt;Group&gt;"><rect id="_Rectangle_" data-name="&lt;Rectangle&gt;" class="cls-2" x="202.1" y="148.58" width="354.38" height="6.38"/><g id="_Group_7" data-name="&lt;Group&gt;"><g id="_Group_8" data-name="&lt;Group&gt;"><path id="_Path_2" data-name="&lt;Path&gt;" class="cls-3" d="M175,608.46a1.7,1.7,0,0,1-1.7-1.7V585.48l10.56-10.56a1.7,1.7,0,0,1,2.41,2.41l-9.56,9.56v19.87A1.7,1.7,0,0,1,175,608.46Z" transform="translate(-122.92 -513.84)"/><g id="_Group_9" data-name="&lt;Group&gt;"><rect id="_Rectangle_2" data-name="&lt;Rectangle&gt;" class="cls-4" x="46.56" y="92.92" width="11" height="24.12"/><rect id="_Rectangle_3" data-name="&lt;Rectangle&gt;" class="cls-5" x="46.56" y="102.99" width="11" height="14.05"/></g></g><rect id="_Rectangle_4" data-name="&lt;Rectangle&gt;" class="cls-6" x="96.68" y="38.3" width="97.16" height="7.7" rx="2" ry="2"/><path id="_Compound_Path_" data-name="&lt;Compound Path&gt;" class="cls-7" d="M306.5,559.84H232.43l-13.79,56.75-72.15,19.24v39.44h176V635.83Zm-42.65,57.72h-38l11.06-52.91h26.93v52.91Zm7.21,0V564.65h28.86l10.26,52.91H271.06Z" transform="translate(-122.92 -513.84)"/><polygon id="_Path_3" data-name="&lt;Path&gt;" class="cls-8" points="102.93 103.71 140.93 103.71 140.93 50.8 113.99 50.8 102.93 103.71"/><polygon id="_Path_4" data-name="&lt;Path&gt;" class="cls-8" points="148.14 50.8 148.14 103.71 187.26 103.71 177 50.8 148.14 50.8"/><path id="_Path_5" data-name="&lt;Path&gt;" class="cls-6" d="M281.21,618.68A48.71,48.71,0,0,0,234,679.15h14.17a35.15,35.15,0,1,1,66.16,0h14.17A48.71,48.71,0,0,0,281.21,618.68Z" transform="translate(-122.92 -513.84)"/><path id="_Path_6" data-name="&lt;Path&gt;" class="cls-6" d="M161.93,641.88a39,39,0,0,0-37.85,48.44h11.35a28.15,28.15,0,1,1,53,0h11.35A39,39,0,0,0,161.93,641.88Z" transform="translate(-122.92 -513.84)"/><g id="_Group_10" data-name="&lt;Group&gt;"><path id="_Compound_Path_2" data-name="&lt;Compound Path&gt;" class="cls-9" d="M324.49,675.6a43.18,43.18,0,0,0,0-16.7H321.3a40.47,40.47,0,0,0-1.19-4.39l2.75-1.59a43.86,43.86,0,0,0-8.36-14.46l-2.76,1.6a41.15,41.15,0,0,0-3.21-3.21l1.6-2.76a43.86,43.86,0,0,0-14.46-8.36l-1.59,2.75a40.44,40.44,0,0,0-4.4-1.19v-3.19a43.18,43.18,0,0,0-16.7,0v3.19a40.46,40.46,0,0,0-4.39,1.19L267,625.71a43.86,43.86,0,0,0-14.46,8.36l1.6,2.76a41.13,41.13,0,0,0-3.21,3.21l-2.76-1.6a43.86,43.86,0,0,0-8.36,14.46l2.75,1.59a40.44,40.44,0,0,0-1.19,4.39h-3.19a43.17,43.17,0,0,0,0,16.7h3.19a40.49,40.49,0,0,0,1.19,4.4l-2.75,1.59A43.86,43.86,0,0,0,248.16,696l2.76-1.6a41.22,41.22,0,0,0,3.21,3.21l-1.6,2.76A43.86,43.86,0,0,0,267,708.78l1.59-2.75a40.45,40.45,0,0,0,4.39,1.19v3.19a43.17,43.17,0,0,0,16.7,0v-3.19a40.43,40.43,0,0,0,4.4-1.19l1.59,2.75a43.86,43.86,0,0,0,14.46-8.36l-1.6-2.76a41.24,41.24,0,0,0,3.21-3.21l2.76,1.59a43.86,43.86,0,0,0,8.36-14.46L320.12,680a40.51,40.51,0,0,0,1.19-4.4h3.19Zm-43.15,13.89a22.24,22.24,0,1,1,22.24-22.24A22.24,22.24,0,0,1,281.34,689.49Z" transform="translate(-122.92 -513.84)"/><circle id="_Path_7" data-name="&lt;Path&gt;" class="cls-10" cx="158.41" cy="153.4" r="22.24"/><circle id="_Path_8" data-name="&lt;Path&gt;" class="cls-11" cx="158.41" cy="153.4" r="10.94"/><g id="_Group_11" data-name="&lt;Group&gt;"><circle id="_Path_9" data-name="&lt;Path&gt;" class="cls-11" cx="158.54" cy="140.17" r="1.68"/><circle id="_Path_10" data-name="&lt;Path&gt;" class="cls-11" cx="274.83" cy="655.73" r="1.68" transform="translate(-413.96 -288.58) rotate(-30)"/><circle id="_Path_11" data-name="&lt;Path&gt;" class="cls-11" cx="269.95" cy="660.52" r="1.68" transform="translate(-559.98 50.19) rotate(-60)"/><circle id="_Path_12" data-name="&lt;Path&gt;" class="cls-11" cx="145.19" cy="153.28" r="1.68"/><circle id="_Path_13" data-name="&lt;Path&gt;" class="cls-11" cx="269.82" cy="673.75" r="1.68" transform="translate(-423.65 -288.67) rotate(-30)"/><circle id="_Path_14" data-name="&lt;Path&gt;" class="cls-11" cx="274.62" cy="678.64" r="1.68" transform="translate(-573.33 63.29) rotate(-60)"/><circle id="_Path_15" data-name="&lt;Path&gt;" class="cls-11" cx="158.29" cy="166.63" r="1.68"/><circle id="_Path_16" data-name="&lt;Path&gt;" class="cls-11" cx="287.84" cy="678.76" r="1.68" transform="matrix(0.87, -0.5, 0.5, 0.87, -423.74, -278.98)"/><circle id="_Path_17" data-name="&lt;Path&gt;" class="cls-11" cx="292.73" cy="673.97" r="1.68" transform="translate(-560.23 76.66) rotate(-60)"/><circle id="_Path_18" data-name="&lt;Path&gt;" class="cls-11" cx="171.64" cy="153.53" r="1.68"/><circle id="_Path_19" data-name="&lt;Path&gt;" class="cls-11" cx="292.86" cy="660.74" r="1.68" transform="translate(-414.07 -278.88) rotate(-30)"/><circle id="_Path_20" data-name="&lt;Path&gt;" class="cls-11" cx="288.06" cy="655.85" r="1.68" transform="translate(-546.88 63.55) rotate(-60)"/></g></g><g id="_Group_12" data-name="&lt;Group&gt;"><path id="_Compound_Path_3" data-name="&lt;Compound Path&gt;" class="cls-9" d="M191.79,686.27a30.24,30.24,0,0,0,0-11.7h-2.23a28.33,28.33,0,0,0-.83-3.08l1.93-1.11a30.72,30.72,0,0,0-5.85-10.13l-1.94,1.12a28.82,28.82,0,0,0-2.25-2.25l1.12-1.94a30.72,30.72,0,0,0-10.13-5.85l-1.11,1.93a28.33,28.33,0,0,0-3.08-.83v-2.23a30.24,30.24,0,0,0-11.7,0v2.23a28.33,28.33,0,0,0-3.08.83l-1.11-1.93a30.72,30.72,0,0,0-10.13,5.85l1.12,1.94a28.84,28.84,0,0,0-2.25,2.25l-1.94-1.12a30.72,30.72,0,0,0-5.85,10.13l1.93,1.11a28.33,28.33,0,0,0-.83,3.08h-2.23a30.24,30.24,0,0,0,0,11.7h2.23a28.37,28.37,0,0,0,.83,3.08l-1.93,1.11a30.72,30.72,0,0,0,5.85,10.13l1.94-1.12a28.87,28.87,0,0,0,2.25,2.25l-1.12,1.94a30.72,30.72,0,0,0,10.13,5.85l1.11-1.93a28.33,28.33,0,0,0,3.08.83v2.23a30.24,30.24,0,0,0,11.7,0v-2.23a28.32,28.32,0,0,0,3.08-.83l1.11,1.93a30.72,30.72,0,0,0,10.13-5.85l-1.12-1.94a28.86,28.86,0,0,0,2.25-2.25l1.94,1.12a30.72,30.72,0,0,0,5.85-10.13l-1.93-1.11a28.37,28.37,0,0,0,.83-3.08h2.23ZM161.57,696a15.58,15.58,0,1,1,15.58-15.58A15.58,15.58,0,0,1,161.57,696Z" transform="translate(-122.92 -513.84)"/><circle id="_Path_21" data-name="&lt;Path&gt;" class="cls-10" cx="38.64" cy="166.57" r="15.58"/><circle id="_Path_22" data-name="&lt;Path&gt;" class="cls-11" cx="38.64" cy="166.57" r="7.66"/><g id="_Group_13" data-name="&lt;Group&gt;"><circle id="_Path_23" data-name="&lt;Path&gt;" class="cls-11" cx="38.73" cy="157.31" r="1.18"/><circle id="_Path_24" data-name="&lt;Path&gt;" class="cls-11" cx="157.01" cy="672.35" r="1.18" transform="translate(-438.06 -345.27) rotate(-30)"/><circle id="_Path_25" data-name="&lt;Path&gt;" class="cls-11" cx="153.59" cy="675.71" r="1.18" transform="translate(-631.31 -42.97) rotate(-60)"/><circle id="_Path_26" data-name="&lt;Path&gt;" class="cls-11" cx="29.38" cy="166.48" r="1.18"/><circle id="_Path_27" data-name="&lt;Path&gt;" class="cls-11" cx="153.5" cy="684.97" r="1.18" transform="translate(-444.84 -345.33) rotate(-30)"/><circle id="_Path_28" data-name="&lt;Path&gt;" class="cls-11" cx="156.86" cy="688.4" r="1.18" transform="translate(-640.67 -33.8) rotate(-60)"/><circle id="_Path_29" data-name="&lt;Path&gt;" class="cls-11" cx="38.55" cy="175.84" r="1.18"/><circle id="_Path_30" data-name="&lt;Path&gt;" class="cls-11" cx="166.12" cy="688.48" r="1.18" transform="translate(-444.9 -338.55) rotate(-30)"/><circle id="_Path_31" data-name="&lt;Path&gt;" class="cls-11" cx="169.55" cy="685.13" r="1.18" transform="translate(-631.49 -24.45) rotate(-60)"/><circle id="_Path_32" data-name="&lt;Path&gt;" class="cls-11" cx="47.91" cy="166.66" r="1.18"/><circle id="_Path_33" data-name="&lt;Path&gt;" class="cls-11" cx="169.63" cy="675.86" r="1.18" transform="translate(-438.12 -338.48) rotate(-30)"/><circle id="_Path_34" data-name="&lt;Path&gt;" class="cls-11" cx="166.27" cy="672.44" r="1.18" transform="translate(-622.14 -33.62) rotate(-60)"/></g></g><g id="_Group_14" data-name="&lt;Group&gt;"><rect id="_Rectangle_5" data-name="&lt;Rectangle&gt;" class="cls-12" x="69.44" y="126.88" width="24.05" height="2.33"/><rect id="_Rectangle_6" data-name="&lt;Rectangle&gt;" class="cls-12" x="69.44" y="131.33" width="24.05" height="2.33"/><rect id="_Rectangle_7" data-name="&lt;Rectangle&gt;" class="cls-12" x="69.44" y="135.77" width="24.05" height="2.33"/></g></g><g id="_Group_15" data-name="&lt;Group&gt;"><rect id="_Rectangle_8" data-name="&lt;Rectangle&gt;" class="cls-2" x="240.01" y="160.05" width="185.66" height="10.92"/><rect id="_Rectangle_9" data-name="&lt;Rectangle&gt;" class="cls-7" x="234.71" y="105.46" width="196.24" height="58.07"/><g id="_Group_16" data-name="&lt;Group&gt;"><rect id="_Rectangle_10" data-name="&lt;Rectangle&gt;" class="cls-6" x="240.01" y="108.94" width="185.66" height="5.58"/><rect id="_Rectangle_11" data-name="&lt;Rectangle&gt;" class="cls-6" x="240.01" y="118.05" width="185.66" height="5.58"/><rect id="_Rectangle_12" data-name="&lt;Rectangle&gt;" class="cls-6" x="240.01" y="127.15" width="185.66" height="5.58"/><rect id="_Rectangle_13" data-name="&lt;Rectangle&gt;" class="cls-6" x="240.01" y="145.36" width="185.66" height="5.58"/><rect id="_Rectangle_14" data-name="&lt;Rectangle&gt;" class="cls-6" x="240.01" y="154.47" width="185.66" height="5.58"/><rect id="_Rectangle_15" data-name="&lt;Rectangle&gt;" class="cls-6" x="240.01" y="136.26" width="185.66" height="5.58"/></g><g id="_Group_17" data-name="&lt;Group&gt;"><path id="_Compound_Path_4" data-name="&lt;Compound Path&gt;" class="cls-9" d="M412.71,695.18a22.33,22.33,0,0,0,0-8.64h-1.65a20.94,20.94,0,0,0-.61-2.27l1.42-.82a22.69,22.69,0,0,0-4.32-7.48l-1.43.83a21.27,21.27,0,0,0-1.66-1.66l0.83-1.43a22.69,22.69,0,0,0-7.48-4.32L397,670.8a20.91,20.91,0,0,0-2.27-.61v-1.65a22.33,22.33,0,0,0-8.64,0v1.65a20.92,20.92,0,0,0-2.27.61L383,669.38a22.69,22.69,0,0,0-7.48,4.32l0.83,1.43a21.28,21.28,0,0,0-1.66,1.66l-1.43-.83a22.69,22.69,0,0,0-4.32,7.48l1.42,0.82a20.94,20.94,0,0,0-.61,2.27h-1.65a22.33,22.33,0,0,0,0,8.64h1.65a21,21,0,0,0,.61,2.27l-1.42.82a22.69,22.69,0,0,0,4.32,7.48l1.43-.83a21.32,21.32,0,0,0,1.66,1.66L375.49,708a22.69,22.69,0,0,0,7.48,4.32l0.82-1.42a20.92,20.92,0,0,0,2.27.61v1.65a22.33,22.33,0,0,0,8.64,0v-1.65a20.91,20.91,0,0,0,2.27-.61l0.82,1.42a22.69,22.69,0,0,0,7.48-4.32l-0.83-1.43a21.3,21.3,0,0,0,1.66-1.66l1.43,0.83a22.69,22.69,0,0,0,4.32-7.48l-1.42-.82a21,21,0,0,0,.61-2.27h1.65Zm-22.32,7.18a11.5,11.5,0,1,1,11.5-11.5A11.5,11.5,0,0,1,390.39,702.37Z" transform="translate(-122.92 -513.84)"/><circle id="_Path_35" data-name="&lt;Path&gt;" class="cls-10" cx="267.47" cy="177.02" r="11.5"/><circle id="_Path_36" data-name="&lt;Path&gt;" class="cls-11" cx="267.47" cy="177.02" r="5.66"/><g id="_Group_18" data-name="&lt;Group&gt;"><circle id="_Path_37" data-name="&lt;Path&gt;" class="cls-11" cx="267.53" cy="170.17" r="0.87"/><circle id="_Path_38" data-name="&lt;Path&gt;" class="cls-11" cx="387.03" cy="684.9" r="0.87" transform="translate(-413.54 -228.55) rotate(-30)"/><circle id="_Path_39" data-name="&lt;Path&gt;" class="cls-11" cx="384.5" cy="687.38" r="0.87" transform="translate(-525.97 162.8) rotate(-60)"/><circle id="_Path_40" data-name="&lt;Path&gt;" class="cls-11" cx="260.62" cy="176.95" r="0.87"/><circle id="_Path_41" data-name="&lt;Path&gt;" class="cls-11" cx="384.43" cy="694.23" r="0.87" transform="translate(-418.55 -228.59) rotate(-30)"/><circle id="_Path_42" data-name="&lt;Path&gt;" class="cls-11" cx="386.91" cy="696.75" r="0.87" transform="translate(-532.87 169.62) rotate(-60)"/><circle id="_Path_43" data-name="&lt;Path&gt;" class="cls-11" cx="267.4" cy="183.86" r="0.87"/><circle id="_Path_44" data-name="&lt;Path&gt;" class="cls-11" cx="393.76" cy="696.82" r="0.87" transform="translate(-418.58 -223.62) rotate(-30)"/><circle id="_Path_45" data-name="&lt;Path&gt;" class="cls-11" cx="396.28" cy="694.34" r="0.87" transform="translate(-526.1 176.48) rotate(-60)"/><circle id="_Path_46" data-name="&lt;Path&gt;" class="cls-11" cx="274.31" cy="177.08" r="0.87"/><circle id="_Path_47" data-name="&lt;Path&gt;" class="cls-11" cx="396.35" cy="687.5" r="0.87" transform="translate(-413.59 -223.53) rotate(-30)"/><circle id="_Path_48" data-name="&lt;Path&gt;" class="cls-11" cx="393.87" cy="684.97" r="0.87" transform="translate(-519.19 169.74) rotate(-60)"/></g></g><g id="_Group_19" data-name="&lt;Group&gt;"><path id="_Compound_Path_5" data-name="&lt;Compound Path&gt;" class="cls-9" d="M545.42,695.18a22.33,22.33,0,0,0,0-8.64h-1.65a20.92,20.92,0,0,0-.61-2.27l1.42-.82a22.69,22.69,0,0,0-4.32-7.48l-1.43.83a21.3,21.3,0,0,0-1.66-1.66L538,673.7a22.69,22.69,0,0,0-7.48-4.32l-0.82,1.42a20.91,20.91,0,0,0-2.27-.61v-1.65a22.33,22.33,0,0,0-8.64,0v1.65a20.92,20.92,0,0,0-2.27.61l-0.82-1.42a22.69,22.69,0,0,0-7.48,4.32l0.83,1.43a21.27,21.27,0,0,0-1.66,1.66l-1.43-.83a22.69,22.69,0,0,0-4.32,7.48l1.42,0.82a20.92,20.92,0,0,0-.61,2.27h-1.65a22.33,22.33,0,0,0,0,8.64h1.65a21,21,0,0,0,.61,2.27l-1.42.82a22.69,22.69,0,0,0,4.32,7.48l1.43-.83a21.3,21.3,0,0,0,1.66,1.66L508.2,708a22.69,22.69,0,0,0,7.48,4.32l0.82-1.42a20.92,20.92,0,0,0,2.27.61v1.65a22.33,22.33,0,0,0,8.64,0v-1.65a20.91,20.91,0,0,0,2.27-.61l0.82,1.42A22.69,22.69,0,0,0,538,708l-0.83-1.43a21.34,21.34,0,0,0,1.66-1.66l1.43,0.83a22.69,22.69,0,0,0,4.32-7.48l-1.42-.82a20.94,20.94,0,0,0,.61-2.27h1.65Zm-22.32,7.18a11.5,11.5,0,1,1,11.5-11.5A11.5,11.5,0,0,1,523.1,702.37Z" transform="translate(-122.92 -513.84)"/><circle id="_Path_49" data-name="&lt;Path&gt;" class="cls-10" cx="400.17" cy="177.02" r="11.5"/><circle id="_Path_50" data-name="&lt;Path&gt;" class="cls-11" cx="400.17" cy="177.02" r="5.66"/><g id="_Group_20" data-name="&lt;Group&gt;"><circle id="_Path_51" data-name="&lt;Path&gt;" class="cls-11" cx="400.24" cy="170.17" r="0.87"/><circle id="_Path_52" data-name="&lt;Path&gt;" class="cls-11" cx="519.73" cy="684.9" r="0.87" transform="translate(-395.75 -162.21) rotate(-30)"/><circle id="_Path_53" data-name="&lt;Path&gt;" class="cls-11" cx="517.2" cy="687.38" r="0.87" transform="translate(-459.61 277.77) rotate(-60)"/><circle id="_Path_54" data-name="&lt;Path&gt;" class="cls-11" cx="393.33" cy="176.95" r="0.87"/><circle id="_Path_55" data-name="&lt;Path&gt;" class="cls-11" cx="517.14" cy="694.23" r="0.87" transform="translate(-400.75 -162.27) rotate(-30)"/><circle id="_Path_56" data-name="&lt;Path&gt;" class="cls-11" cx="519.62" cy="696.75" r="0.87" transform="translate(-466.52 284.57) rotate(-60)"/><circle id="_Path_57" data-name="&lt;Path&gt;" class="cls-11" cx="400.11" cy="183.86" r="0.87"/><circle id="_Path_58" data-name="&lt;Path&gt;" class="cls-11" cx="526.46" cy="696.82" r="0.87" transform="translate(-400.8 -157.27) rotate(-30)"/><circle id="_Path_59" data-name="&lt;Path&gt;" class="cls-11" cx="528.99" cy="694.34" r="0.87" transform="translate(-459.74 291.45) rotate(-60)"/><circle id="_Path_60" data-name="&lt;Path&gt;" class="cls-11" cx="407.02" cy="177.08" r="0.87"/><circle id="_Path_61" data-name="&lt;Path&gt;" class="cls-11" cx="529.05" cy="687.5" r="0.87" transform="translate(-395.79 -157.22) rotate(-30)"/><circle id="_Path_62" data-name="&lt;Path&gt;" class="cls-11" cx="526.57" cy="684.97" r="0.87" transform="matrix(0.5, -0.87, 0.87, 0.5, -452.83, 284.67)"/></g></g></g><g id="_Group_21" data-name="&lt;Group&gt;"><rect id="_Rectangle_16" data-name="&lt;Rectangle&gt;" class="cls-2" x="457.41" y="160.05" width="185.66" height="10.92"/><rect id="_Rectangle_17" data-name="&lt;Rectangle&gt;" class="cls-7" x="452.11" y="105.46" width="196.24" height="58.07"/><g id="_Group_22" data-name="&lt;Group&gt;"><rect id="_Rectangle_18" data-name="&lt;Rectangle&gt;" class="cls-6" x="457.41" y="108.94" width="185.66" height="5.58"/><rect id="_Rectangle_19" data-name="&lt;Rectangle&gt;" class="cls-6" x="457.41" y="118.05" width="185.66" height="5.58"/><rect id="_Rectangle_20" data-name="&lt;Rectangle&gt;" class="cls-6" x="457.41" y="127.15" width="185.66" height="5.58"/><rect id="_Rectangle_21" data-name="&lt;Rectangle&gt;" class="cls-6" x="457.41" y="145.36" width="185.66" height="5.58"/><rect id="_Rectangle_22" data-name="&lt;Rectangle&gt;" class="cls-6" x="457.41" y="154.47" width="185.66" height="5.58"/><rect id="_Rectangle_23" data-name="&lt;Rectangle&gt;" class="cls-6" x="457.41" y="136.26" width="185.66" height="5.58"/></g><g id="_Group_23" data-name="&lt;Group&gt;"><path id="_Compound_Path_6" data-name="&lt;Compound Path&gt;" class="cls-9" d="M630.11,695.18a22.33,22.33,0,0,0,0-8.64h-1.65a20.94,20.94,0,0,0-.61-2.27l1.42-.82A22.69,22.69,0,0,0,625,676l-1.43.83a21.27,21.27,0,0,0-1.66-1.66l0.83-1.43a22.69,22.69,0,0,0-7.48-4.32l-0.82,1.42a20.91,20.91,0,0,0-2.27-.61v-1.65a22.33,22.33,0,0,0-8.64,0v1.65a20.92,20.92,0,0,0-2.27.61l-0.82-1.42a22.69,22.69,0,0,0-7.48,4.32l0.83,1.43a21.28,21.28,0,0,0-1.66,1.66l-1.43-.83a22.69,22.69,0,0,0-4.32,7.48l1.42,0.82a20.94,20.94,0,0,0-.61,2.27h-1.65a22.34,22.34,0,0,0,0,8.64h1.65a21,21,0,0,0,.61,2.27l-1.42.82a22.69,22.69,0,0,0,4.32,7.48l1.43-.83a21.32,21.32,0,0,0,1.66,1.66L592.89,708a22.69,22.69,0,0,0,7.48,4.32l0.82-1.42a20.92,20.92,0,0,0,2.27.61v1.65a22.33,22.33,0,0,0,8.64,0v-1.65a20.91,20.91,0,0,0,2.27-.61l0.82,1.42a22.69,22.69,0,0,0,7.48-4.32l-0.83-1.43a21.3,21.3,0,0,0,1.66-1.66l1.43,0.83a22.69,22.69,0,0,0,4.32-7.48l-1.42-.82a21,21,0,0,0,.61-2.27h1.65Zm-22.32,7.18a11.5,11.5,0,1,1,11.5-11.5A11.5,11.5,0,0,1,607.79,702.37Z" transform="translate(-122.92 -513.84)"/><circle id="_Path_63" data-name="&lt;Path&gt;" class="cls-10" cx="484.87" cy="177.02" r="11.5"/><circle id="_Path_64" data-name="&lt;Path&gt;" class="cls-11" cx="484.87" cy="177.02" r="5.66"/><g id="_Group_24" data-name="&lt;Group&gt;"><circle id="_Path_65" data-name="&lt;Path&gt;" class="cls-11" cx="484.93" cy="170.17" r="0.87"/><circle id="_Path_66" data-name="&lt;Path&gt;" class="cls-11" cx="604.43" cy="684.9" r="0.87" transform="translate(-384.41 -119.84) rotate(-30)"/><circle id="_Path_67" data-name="&lt;Path&gt;" class="cls-11" cx="601.9" cy="687.38" r="0.87" transform="translate(-417.27 351.08) rotate(-60)"/><circle id="_Path_68" data-name="&lt;Path&gt;" class="cls-11" cx="478.02" cy="176.95" r="0.87"/><circle id="_Path_69" data-name="&lt;Path&gt;" class="cls-11" cx="601.83" cy="694.23" r="0.87" transform="matrix(0.87, -0.5, 0.5, 0.87, -389.42, -119.88)"/><circle id="_Path_70" data-name="&lt;Path&gt;" class="cls-11" cx="604.31" cy="696.75" r="0.87" transform="translate(-424.17 357.89) rotate(-60)"/><circle id="_Path_71" data-name="&lt;Path&gt;" class="cls-11" cx="484.8" cy="183.86" r="0.87"/><circle id="_Path_72" data-name="&lt;Path&gt;" class="cls-11" cx="611.16" cy="696.82" r="0.87" transform="translate(-389.45 -114.92) rotate(-30)"/><circle id="_Path_73" data-name="&lt;Path&gt;" class="cls-11" cx="613.68" cy="694.34" r="0.87" transform="translate(-417.4 364.75) rotate(-60)"/><circle id="_Path_74" data-name="&lt;Path&gt;" class="cls-11" cx="491.71" cy="177.08" r="0.87"/><circle id="_Path_75" data-name="&lt;Path&gt;" class="cls-11" cx="613.75" cy="687.5" r="0.87" transform="translate(-384.46 -114.83) rotate(-30)"/><circle id="_Path_76" data-name="&lt;Path&gt;" class="cls-11" cx="611.27" cy="684.97" r="0.87" transform="matrix(0.5, -0.87, 0.87, 0.5, -410.49, 358.02)"/></g></g><g id="_Group_25" data-name="&lt;Group&gt;"><path id="_Compound_Path_7" data-name="&lt;Compound Path&gt;" class="cls-9" d="M762.82,695.18a22.33,22.33,0,0,0,0-8.64h-1.65a20.92,20.92,0,0,0-.61-2.27l1.42-.82a22.69,22.69,0,0,0-4.32-7.48l-1.43.83a21.3,21.3,0,0,0-1.66-1.66l0.83-1.43a22.69,22.69,0,0,0-7.48-4.32l-0.82,1.42a20.91,20.91,0,0,0-2.27-.61v-1.65a22.33,22.33,0,0,0-8.64,0v1.65a20.92,20.92,0,0,0-2.27.61l-0.82-1.42a22.69,22.69,0,0,0-7.48,4.32l0.83,1.43a21.26,21.26,0,0,0-1.66,1.66l-1.43-.83a22.69,22.69,0,0,0-4.32,7.48l1.42,0.82a20.92,20.92,0,0,0-.61,2.27h-1.65a22.33,22.33,0,0,0,0,8.64h1.65a21,21,0,0,0,.61,2.27l-1.42.82a22.69,22.69,0,0,0,4.32,7.48l1.43-.83a21.3,21.3,0,0,0,1.66,1.66L725.6,708a22.69,22.69,0,0,0,7.48,4.32l0.82-1.42a20.92,20.92,0,0,0,2.27.61v1.65a22.33,22.33,0,0,0,8.64,0v-1.65a20.91,20.91,0,0,0,2.27-.61l0.82,1.42a22.69,22.69,0,0,0,7.48-4.32l-0.83-1.43a21.34,21.34,0,0,0,1.66-1.66l1.43,0.83a22.69,22.69,0,0,0,4.32-7.48l-1.42-.82a21,21,0,0,0,.61-2.27h1.65Zm-22.32,7.18a11.5,11.5,0,1,1,11.5-11.5A11.5,11.5,0,0,1,740.5,702.37Z" transform="translate(-122.92 -513.84)"/><circle id="_Path_77" data-name="&lt;Path&gt;" class="cls-10" cx="617.57" cy="177.02" r="11.5"/><circle id="_Path_78" data-name="&lt;Path&gt;" class="cls-11" cx="617.57" cy="177.02" r="5.66"/><g id="_Group_26" data-name="&lt;Group&gt;"><circle id="_Path_79" data-name="&lt;Path&gt;" class="cls-11" cx="617.64" cy="170.17" r="0.87"/><circle id="_Path_80" data-name="&lt;Path&gt;" class="cls-11" cx="737.13" cy="684.9" r="0.87" transform="translate(-366.62 -53.51) rotate(-30)"/><circle id="_Path_81" data-name="&lt;Path&gt;" class="cls-11" cx="734.6" cy="687.38" r="0.87" transform="translate(-350.91 466.03) rotate(-60)"/><circle id="_Path_82" data-name="&lt;Path&gt;" class="cls-11" cx="610.73" cy="176.95" r="0.87"/><circle id="_Path_83" data-name="&lt;Path&gt;" class="cls-11" cx="734.54" cy="694.23" r="0.87" transform="translate(-371.62 -53.57) rotate(-30)"/><circle id="_Path_84" data-name="&lt;Path&gt;" class="cls-11" cx="737.02" cy="696.75" r="0.87" transform="translate(-357.81 472.85) rotate(-60)"/><circle id="_Path_85" data-name="&lt;Path&gt;" class="cls-11" cx="617.51" cy="183.86" r="0.87"/><circle id="_Path_86" data-name="&lt;Path&gt;" class="cls-11" cx="743.86" cy="696.82" r="0.87" transform="translate(-371.67 -48.57) rotate(-30)"/><circle id="_Path_87" data-name="&lt;Path&gt;" class="cls-11" cx="746.39" cy="694.34" r="0.87" transform="translate(-351.04 479.73) rotate(-60)"/><circle id="_Path_88" data-name="&lt;Path&gt;" class="cls-11" cx="624.42" cy="177.08" r="0.87"/><circle id="_Path_89" data-name="&lt;Path&gt;" class="cls-11" cx="746.45" cy="687.5" r="0.87" transform="translate(-366.66 -48.52) rotate(-30)"/><circle id="_Path_90" data-name="&lt;Path&gt;" class="cls-11" cx="743.97" cy="684.97" r="0.87" transform="translate(-344.12 472.98) rotate(-60)"/></g></g></g></g></g><g id="_Group_27" data-name="&lt;Group&gt;"><g id="_Group_28" data-name="&lt;Group&gt;"><path id="_Path_91" data-name="&lt;Path&gt;" class="cls-13" d="M401.43,613.49c-5.2,5.2-14.46,4.39-14.46,4.39s-0.81-9.25,4.39-14.46S405.83,599,405.83,599,406.64,608.29,401.43,613.49Z" transform="translate(-122.92 -513.84)"/><path id="_Path_92" data-name="&lt;Path&gt;" class="cls-13" d="M382.5,603.43c5.2,5.2,4.39,14.46,4.39,14.46s-9.25.81-14.46-4.39S368,599,368,599,377.29,598.22,382.5,603.43Z" transform="translate(-122.92 -513.84)"/></g><g id="_Group_29" data-name="&lt;Group&gt;"><path id="_Path_93" data-name="&lt;Path&gt;" class="cls-13" d="M447.91,613.49c-5.2,5.2-14.46,4.39-14.46,4.39s-0.81-9.25,4.39-14.46S452.3,599,452.3,599,453.11,608.29,447.91,613.49Z" transform="translate(-122.92 -513.84)"/><path id="_Path_94" data-name="&lt;Path&gt;" class="cls-13" d="M429,603.43c5.2,5.2,4.39,14.46,4.39,14.46s-9.25.81-14.46-4.39S414.51,599,414.51,599,423.76,598.22,429,603.43Z" transform="translate(-122.92 -513.84)"/></g><g id="_Group_30" data-name="&lt;Group&gt;"><path id="_Path_95" data-name="&lt;Path&gt;" class="cls-13" d="M494.38,613.49c-5.2,5.2-14.46,4.39-14.46,4.39s-0.81-9.25,4.39-14.46S498.77,599,498.77,599,499.58,608.29,494.38,613.49Z" transform="translate(-122.92 -513.84)"/><path id="_Path_96" data-name="&lt;Path&gt;" class="cls-13" d="M475.44,603.43c5.2,5.2,4.39,14.46,4.39,14.46s-9.25.81-14.46-4.39S461,599,461,599,470.24,598.22,475.44,603.43Z" transform="translate(-122.92 -513.84)"/></g><g id="_Group_31" data-name="&lt;Group&gt;"><path id="_Path_97" data-name="&lt;Path&gt;" class="cls-13" d="M540.85,613.49c-5.2,5.2-14.46,4.39-14.46,4.39s-0.81-9.25,4.39-14.46S545.24,599,545.24,599,546.06,608.29,540.85,613.49Z" transform="translate(-122.92 -513.84)"/><path id="_Path_98" data-name="&lt;Path&gt;" class="cls-13" d="M521.91,603.43c5.2,5.2,4.39,14.46,4.39,14.46s-9.25.81-14.46-4.39S507.46,599,507.46,599,516.71,598.22,521.91,603.43Z" transform="translate(-122.92 -513.84)"/></g></g><g id="_Group_32" data-name="&lt;Group&gt;"><g id="_Group_33" data-name="&lt;Group&gt;"><path id="_Path_99" data-name="&lt;Path&gt;" class="cls-13" d="M619.73,613.49c-5.2,5.2-14.46,4.39-14.46,4.39s-0.81-9.25,4.39-14.46S624.12,599,624.12,599,624.94,608.29,619.73,613.49Z" transform="translate(-122.92 -513.84)"/><path id="_Path_100" data-name="&lt;Path&gt;" class="cls-13" d="M600.79,603.43c5.2,5.2,4.39,14.46,4.39,14.46s-9.25.81-14.46-4.39S586.34,599,586.34,599,595.59,598.22,600.79,603.43Z" transform="translate(-122.92 -513.84)"/></g><g id="_Group_34" data-name="&lt;Group&gt;"><path id="_Path_101" data-name="&lt;Path&gt;" class="cls-13" d="M666.2,613.49c-5.2,5.2-14.46,4.39-14.46,4.39s-0.81-9.25,4.39-14.46S670.59,599,670.59,599,671.41,608.29,666.2,613.49Z" transform="translate(-122.92 -513.84)"/><path id="_Path_102" data-name="&lt;Path&gt;" class="cls-13" d="M647.27,603.43c5.2,5.2,4.39,14.46,4.39,14.46s-9.25.81-14.46-4.39S632.81,599,632.81,599,642.06,598.22,647.27,603.43Z" transform="translate(-122.92 -513.84)"/></g><g id="_Group_35" data-name="&lt;Group&gt;"><path id="_Path_103" data-name="&lt;Path&gt;" class="cls-13" d="M712.68,613.49c-5.2,5.2-14.46,4.39-14.46,4.39s-0.81-9.25,4.39-14.46S717.07,599,717.07,599,717.88,608.29,712.68,613.49Z" transform="translate(-122.92 -513.84)"/><path id="_Path_104" data-name="&lt;Path&gt;" class="cls-13" d="M693.74,603.43c5.2,5.2,4.39,14.46,4.39,14.46s-9.25.81-14.46-4.39S679.28,599,679.28,599,688.53,598.22,693.74,603.43Z" transform="translate(-122.92 -513.84)"/></g><g id="_Group_36" data-name="&lt;Group&gt;"><path id="_Path_105" data-name="&lt;Path&gt;" class="cls-13" d="M759.15,613.49c-5.2,5.2-14.46,4.39-14.46,4.39s-0.81-9.25,4.39-14.46S763.54,599,763.54,599,764.35,608.29,759.15,613.49Z" transform="translate(-122.92 -513.84)"/><path id="_Path_106" data-name="&lt;Path&gt;" class="cls-13" d="M740.21,603.43c5.2,5.2,4.39,14.46,4.39,14.46s-9.25.81-14.46-4.39S725.75,599,725.75,599,735,598.22,740.21,603.43Z" transform="translate(-122.92 -513.84)"/></g></g></g></g></g></g></svg>